<svg width="16" height="16" viewBox="0 0 16 16" fill="none" xmlns="http://www.w3.org/2000/svg">
<g id="&#208;&#159;&#209;&#128;&#208;&#181;&#208;&#184;&#208;&#188;&#209;&#131;&#209;&#137;&#208;&#181;&#209;&#129;&#209;&#130;&#208;&#178;&#208;&#190; 2">
<path id="Vector" fill-rule="evenodd" clip-rule="evenodd" d="M9.99131 0.75237C10.2591 0.901653 10.3905 1.2143 10.3099 1.51007L9.03951 6.16799H13.6667C13.9321 6.16799 14.1723 6.32549 14.2781 6.56896C14.3839 6.81243 14.3352 7.09547 14.1541 7.28954L7.15405 14.7895C6.94487 15.0137 6.60982 15.0662 6.34205 14.9169C6.07428 14.7677 5.94284 14.455 6.02351 14.1592L7.29385 9.50132H2.66668C2.40122 9.50132 2.16105 9.34383 2.05525 9.10036C1.94945 8.85689 1.99818 8.57385 2.17931 8.37978L9.17931 0.879779C9.38849 0.655661 9.72355 0.603088 9.99131 0.75237ZM4.20083 8.16799H8.16668C8.37446 8.16799 8.57036 8.26487 8.69649 8.43C8.82261 8.59512 8.86453 8.80961 8.80986 9.01007L8.01946 11.9082L12.1325 7.50132H8.16668C7.9589 7.50132 7.763 7.40445 7.63688 7.23932C7.51076 7.07419 7.46883 6.85971 7.52351 6.65925L8.3139 3.76113L4.20083 8.16799Z" fill="url(#paint0_linear_1603_2522)"/>
</g>
<defs>
<linearGradient id="paint0_linear_1603_2522" x1="2" y1="15.0013" x2="17.6207" y2="7.94344" gradientUnits="userSpaceOnUse">
<stop stop-color="#FF7AC6"/>
<stop offset="0.23" stop-color="#FFBD7A" stop-opacity="0.8"/>
<stop offset="0.5" stop-color="#C37AFF" stop-opacity="0.94"/>
<stop offset="0.75" stop-color="#4D67FF"/>
<stop offset="0.99" stop-color="#7AFFF8" stop-opacity="0.82"/>
</linearGradient>
</defs>
</svg>
