<svg width="16" height="16" viewBox="0 0 16 16" fill="none" xmlns="http://www.w3.org/2000/svg">
<g id="Identification">
<g id="Vector">
<path fill-rule="evenodd" clip-rule="evenodd" d="M3.33594 3.33203C2.23137 3.33203 1.33594 4.22746 1.33594 5.33203V11.9987C1.33594 13.1033 2.23137 13.9987 3.33594 13.9987H12.6693C13.7738 13.9987 14.6693 13.1033 14.6693 11.9987V5.33203C14.6693 4.22746 13.7738 3.33203 12.6693 3.33203H10.6693V4.66536H12.6693C13.0375 4.66536 13.3359 4.96384 13.3359 5.33203V11.9987C13.3359 12.3669 13.0375 12.6654 12.6693 12.6654H3.33594C2.96775 12.6654 2.66927 12.3669 2.66927 11.9987V5.33203C2.66927 4.96384 2.96775 4.66536 3.33594 4.66536H5.33594V3.33203H3.33594Z" fill="currentColor"/>
<path fill-rule="evenodd" clip-rule="evenodd" d="M12.0026 7.9987H8.0026V8.66536H12.0026V7.9987Z" fill="currentColor"/>
<path fill-rule="evenodd" clip-rule="evenodd" d="M12.0026 9.33203H8.0026V9.9987H12.0026V9.33203Z" fill="currentColor"/>
<path d="M7.33594 8.9987C7.33594 9.91917 6.58975 10.6654 5.66927 10.6654C4.7488 10.6654 4.0026 9.91917 4.0026 8.9987C4.0026 8.07822 4.7488 7.33203 5.66927 7.33203C6.58975 7.33203 7.33594 8.07822 7.33594 8.9987Z" fill="currentColor"/>
<path fill-rule="evenodd" clip-rule="evenodd" d="M8.66927 2.66536H7.33594V4.66536H8.66927V2.66536ZM7.33594 1.33203C6.59956 1.33203 6.0026 1.92898 6.0026 2.66536V4.66536C6.0026 5.40174 6.59956 5.9987 7.33594 5.9987H8.66927C9.40565 5.9987 10.0026 5.40174 10.0026 4.66536V2.66536C10.0026 1.92898 9.40565 1.33203 8.66927 1.33203H7.33594Z" fill="currentColor"/>
</g>
</g>
</svg>
