<svg width="16" height="16" viewBox="0 0 16 16" fill="none" xmlns="http://www.w3.org/2000/svg">
<g id="u:lock">
<path id="Vector" d="M11.3307 5.9987V4.66536C11.3307 3.78131 10.9795 2.93346 10.3544 2.30834C9.7293 1.68322 8.88145 1.33203 7.9974 1.33203C7.11334 1.33203 6.26549 1.68322 5.64037 2.30834C5.01525 2.93346 4.66406 3.78131 4.66406 4.66536V5.9987C4.13363 5.9987 3.62492 6.20941 3.24985 6.58448C2.87478 6.95956 2.66406 7.46827 2.66406 7.9987V12.6654C2.66406 13.1958 2.87478 13.7045 3.24985 14.0796C3.62492 14.4547 4.13363 14.6654 4.66406 14.6654H11.3307C11.8612 14.6654 12.3699 14.4547 12.7449 14.0796C13.12 13.7045 13.3307 13.1958 13.3307 12.6654V7.9987C13.3307 7.46827 13.12 6.95956 12.7449 6.58448C12.3699 6.20941 11.8612 5.9987 11.3307 5.9987ZM5.9974 4.66536C5.9974 4.13493 6.20811 3.62622 6.58318 3.25115C6.95825 2.87608 7.46696 2.66536 7.9974 2.66536C8.52783 2.66536 9.03654 2.87608 9.41161 3.25115C9.78668 3.62622 9.9974 4.13493 9.9974 4.66536V5.9987H5.9974V4.66536ZM11.9974 12.6654C11.9974 12.8422 11.9272 13.0117 11.8021 13.1368C11.6771 13.2618 11.5075 13.332 11.3307 13.332H4.66406C4.48725 13.332 4.31768 13.2618 4.19266 13.1368C4.06763 13.0117 3.9974 12.8422 3.9974 12.6654V7.9987C3.9974 7.82189 4.06763 7.65232 4.19266 7.52729C4.31768 7.40227 4.48725 7.33203 4.66406 7.33203H11.3307C11.5075 7.33203 11.6771 7.40227 11.8021 7.52729C11.9272 7.65232 11.9974 7.82189 11.9974 7.9987V12.6654Z" fill="currentColor"/>
</g>
</svg>
