<svg width="16" height="16" viewBox="0 0 16 16" fill="none" xmlns="http://www.w3.org/2000/svg">
<g id="Me">
<g id="Vector">
<path d="M14.6693 7.9987C14.6693 4.32536 11.6759 1.33203 8.0026 1.33203C4.32927 1.33203 1.33594 4.32536 1.33594 7.9987C1.33594 9.93203 2.16927 11.672 3.48927 12.892C3.48927 12.8987 3.48927 12.8987 3.4826 12.9054C3.54927 12.972 3.62927 13.0254 3.69594 13.0854C3.73594 13.1187 3.76927 13.152 3.80927 13.1787C3.92927 13.2787 4.0626 13.372 4.18927 13.4654C4.23594 13.4987 4.27594 13.5254 4.3226 13.5587C4.44927 13.6454 4.5826 13.7254 4.7226 13.7987C4.76927 13.8254 4.8226 13.8587 4.86927 13.8854C5.0026 13.9587 5.1426 14.0254 5.28927 14.0854C5.3426 14.112 5.39594 14.1387 5.44927 14.1587C5.59594 14.2187 5.7426 14.272 5.88927 14.3187C5.9426 14.3387 5.99594 14.3587 6.04927 14.372C6.20927 14.4187 6.36927 14.4587 6.52927 14.4987C6.57594 14.512 6.6226 14.5254 6.67594 14.532C6.8626 14.572 7.04927 14.5987 7.2426 14.6187C7.26927 14.6187 7.29594 14.6254 7.3226 14.632C7.54927 14.652 7.77594 14.6654 8.0026 14.6654C8.22927 14.6654 8.45594 14.652 8.67594 14.632C8.7026 14.632 8.72927 14.6254 8.75594 14.6187C8.94927 14.5987 9.13594 14.572 9.3226 14.532C9.36927 14.5254 9.41594 14.5054 9.46927 14.4987C9.62927 14.4587 9.79594 14.4254 9.94927 14.372C10.0026 14.352 10.0559 14.332 10.1093 14.3187C10.2559 14.2654 10.4093 14.2187 10.5493 14.1587C10.6026 14.1387 10.6559 14.112 10.7093 14.0854C10.8493 14.0254 10.9893 13.9587 11.1293 13.8854C11.1826 13.8587 11.2293 13.8254 11.2759 13.7987C11.4093 13.7187 11.5426 13.6454 11.6759 13.5587C11.7226 13.532 11.7626 13.4987 11.8093 13.4654C11.9426 13.372 12.0693 13.2787 12.1893 13.1787C12.2293 13.1454 12.2626 13.112 12.3026 13.0854C12.3759 13.0254 12.4493 12.9654 12.5159 12.9054C12.5159 12.8987 12.5159 12.8987 12.5093 12.892C13.8359 11.672 14.6693 9.93203 14.6693 7.9987ZM11.2959 11.312C9.48927 10.0987 6.52927 10.0987 4.70927 11.312C4.41594 11.5054 4.17594 11.732 3.97594 11.9787C2.9626 10.952 2.33594 9.54536 2.33594 7.9987C2.33594 4.87203 4.87594 2.33203 8.0026 2.33203C11.1293 2.33203 13.6693 4.87203 13.6693 7.9987C13.6693 9.54536 13.0426 10.952 12.0293 11.9787C11.8359 11.732 11.5893 11.5054 11.2959 11.312Z" fill="white"/>
<path d="M8.0026 4.6187C6.6226 4.6187 5.5026 5.7387 5.5026 7.1187C5.5026 8.47203 6.5626 9.57203 7.96927 9.61203C7.98927 9.61203 8.01594 9.61203 8.02927 9.61203C8.0426 9.61203 8.0626 9.61203 8.07594 9.61203C8.0826 9.61203 8.08927 9.61203 8.08927 9.61203C9.43594 9.56536 10.4959 8.47203 10.5026 7.1187C10.5026 5.7387 9.3826 4.6187 8.0026 4.6187Z" fill="white"/>
</g>
</g>
</svg>
