<svg width="16" height="16" viewBox="0 0 16 16" fill="none" xmlns="http://www.w3.org/2000/svg">
<g id="Protection">
<g id="Vector">
<path d="M13.3284 3.69967C13.343 3.60329 13.2883 3.51006 13.1985 3.47824C11.5042 2.71441 9.81426 1.94265 8.12872 1.16282C8.05149 1.12281 7.9605 1.12281 7.88335 1.16282C6.18643 1.9382 4.49049 2.71134 2.79521 3.48224C2.7101 3.5055 2.65469 3.5898 2.66538 3.67967C2.67706 4.86674 2.66411 6.05509 2.67706 7.24207C2.68466 8.87757 3.20337 10.4672 4.15677 11.7769C5.07839 13.052 6.25695 13.9656 7.75083 14.4271C7.91172 14.4792 8.08448 14.4791 8.24545 14.427C9.62314 14.0034 10.834 13.1407 11.7032 11.9636C12.7602 10.5995 13.3326 8.90563 13.3257 7.16195V5.62274C13.3206 4.98254 13.3206 4.34118 13.3284 3.69967ZM12.4119 7.27148C12.4185 8.71644 11.945 10.1206 11.0699 11.2515C10.3497 12.2289 9.34542 12.9455 8.20267 13.2976C8.06922 13.3408 7.92597 13.3408 7.79253 13.2976C6.59033 12.9226 5.54285 12.1493 4.81363 11.0981C4.02267 10.0125 3.59224 8.69424 3.5858 7.33807C3.57539 6.35374 3.5858 5.3694 3.5858 4.38516C3.5772 4.31176 3.62174 4.24291 3.69092 4.22254C5.09185 3.58494 6.49459 2.94337 7.89897 2.29786C7.96307 2.26455 8.03867 2.26455 8.10278 2.29786C9.50461 2.94337 10.9055 3.58318 12.3057 4.21713C12.3799 4.24392 12.4248 4.32142 12.4121 4.40125L12.4119 7.27148Z" fill="currentColor"/>
<path d="M11.6331 4.77599L10.9737 4.47584L4.84323 9.81097C4.97732 10.0794 5.13268 10.3359 5.30789 10.578C5.42233 10.7363 5.54447 10.8885 5.67395 11.034L11.7265 5.7682V4.93059C11.7367 4.86239 11.697 4.79683 11.6331 4.77599Z" fill="currentColor"/>
<path d="M7.8235 12.4386C7.93622 12.4752 8.05728 12.4752 8.16999 12.4386C9.13617 12.1426 9.98542 11.5381 10.5947 10.7126C11.3338 9.75846 11.734 8.5737 11.7292 7.35412V6.86865L6.27759 11.6155C6.73798 11.9873 7.26232 12.2666 7.8235 12.4386Z" fill="currentColor"/>
<path d="M8.08704 3.15682C8.03317 3.129 7.9696 3.129 7.91564 3.15682C6.73018 3.69922 5.54657 4.24033 4.36447 4.78003C4.30924 4.79911 4.2732 4.85363 4.27619 4.91345V7.4062C4.27782 7.67862 4.29955 7.95064 4.34111 8.21981C4.38176 8.4844 4.44116 8.74565 4.51893 9.00131L10.1457 4.09822L8.08704 3.15682Z" fill="currentColor"/>
</g>
</g>
</svg>
