<svg width="16" height="16" viewBox="0 0 16 16" fill="none" xmlns="http://www.w3.org/2000/svg">
<g id="&#208;&#147;&#208;&#183;&#208;&#178;&#209;&#132;&#208;&#181;&#209;&#131;&#209;&#139;">
<g id="Vector">
<path fill-rule="evenodd" clip-rule="evenodd" d="M3.24705 4.66536C3.09381 4.66536 2.94685 4.72624 2.8385 4.83459C2.73014 4.94295 2.66927 5.08991 2.66927 5.24314V12.0876C2.66927 12.2408 2.73014 12.3878 2.8385 12.4961C2.94685 12.6045 3.09381 12.6654 3.24705 12.6654H10.0915C10.2447 12.6654 10.3917 12.6045 10.5 12.4961C10.6084 12.3878 10.6693 12.2408 10.6693 12.0876V8.35425C10.6693 7.98606 10.9677 7.68759 11.3359 7.68759C11.7041 7.68759 12.0026 7.98606 12.0026 8.35425V12.0876C12.0026 12.5944 11.8013 13.0805 11.4429 13.4389C11.0844 13.7973 10.5984 13.9987 10.0915 13.9987H3.24705C2.74019 13.9987 2.25409 13.7973 1.89569 13.4389C1.53729 13.0805 1.33594 12.5944 1.33594 12.0876V5.24314C1.33594 4.73628 1.53729 4.25019 1.89569 3.89178C2.25409 3.53338 2.74019 3.33203 3.24705 3.33203H6.98038C7.34857 3.33203 7.64705 3.63051 7.64705 3.9987C7.64705 4.36689 7.34857 4.66536 6.98038 4.66536H3.24705Z" fill="white"/>
<path fill-rule="evenodd" clip-rule="evenodd" d="M8.66927 1.9987C8.66927 1.63051 8.96775 1.33203 9.33594 1.33203H13.3359C13.7041 1.33203 14.0026 1.63051 14.0026 1.9987V5.9987C14.0026 6.36689 13.7041 6.66536 13.3359 6.66536C12.9677 6.66536 12.6693 6.36689 12.6693 5.9987V2.66536H9.33594C8.96775 2.66536 8.66927 2.36689 8.66927 1.9987Z" fill="white"/>
<path fill-rule="evenodd" clip-rule="evenodd" d="M13.8073 1.52729C14.0677 1.78764 14.0677 2.20975 13.8073 2.4701L7.14068 9.13677C6.88033 9.39712 6.45822 9.39712 6.19787 9.13677C5.93752 8.87642 5.93752 8.45431 6.19787 8.19396L12.8645 1.52729C13.1249 1.26694 13.547 1.26694 13.8073 1.52729Z" fill="white"/>
</g>
</g>
</svg>
