<svg width="40" height="40" viewBox="0 0 40 40" fill="none" xmlns="http://www.w3.org/2000/svg">
<g id="&#208;&#159;&#209;&#128;&#208;&#190;&#208;&#178;&#208;&#181;&#209;&#128;&#208;&#190;&#208;&#186; &#208;&#183;&#208;&#176; &#208;&#179;&#208;&#190;&#208;&#180;">
<g id="Vector">
<path d="M20.0021 31.9035C22.1539 31.9035 23.8982 30.3045 23.8982 28.332C23.8982 26.3596 22.1539 24.7606 20.0021 24.7606C17.8504 24.7606 16.106 26.3596 16.106 28.332C16.106 30.3045 17.8504 31.9035 20.0021 31.9035Z" fill="white" fill-opacity="0.92"/>
<path d="M22.5995 31.9035H20.0021H17.4047C15.2563 31.9035 13.5086 33.5055 13.5086 35.4749V36.6654H26.4956V35.4749C26.4956 33.5055 24.748 31.9035 22.5995 31.9035Z" fill="white" fill-opacity="0.92"/>
<path d="M31.6904 31.9035C33.8422 31.9035 35.5865 30.3045 35.5865 28.332C35.5865 26.3596 33.8422 24.7606 31.6904 24.7606C29.5387 24.7606 27.7943 26.3596 27.7943 28.332C27.7943 30.3045 29.5387 31.9035 31.6904 31.9035Z" fill="white" fill-opacity="0.92"/>
<path d="M8.31382 31.9035C10.4656 31.9035 12.2099 30.3045 12.2099 28.332C12.2099 26.3596 10.4656 24.7606 8.31382 24.7606C6.16206 24.7606 4.41772 26.3596 4.41772 28.332C4.41772 30.3045 6.16206 31.9035 8.31382 31.9035Z" fill="white" fill-opacity="0.92"/>
<path d="M8.31382 31.9035H5.71642C3.56798 31.9035 1.82031 33.5055 1.82031 35.4749V36.6654H12.2099V35.4749C12.2099 34.4093 12.6074 33.4347 13.255 32.6404C12.6008 32.1846 11.7946 31.9035 10.9112 31.9035H8.31382Z" fill="white" fill-opacity="0.92"/>
<path d="M34.2878 31.9035H31.6904H29.093C28.2097 31.9035 27.4035 32.1846 26.7493 32.6404C27.3969 33.4347 27.7943 34.4093 27.7943 35.4749V36.6654H38.184V35.4749C38.184 33.5055 36.4363 31.9035 34.2878 31.9035Z" fill="white" fill-opacity="0.92"/>
<path d="M36.3249 19.9987C36.9918 10.921 29.4118 3.33203 20.0021 3.33203C10.5924 3.33203 3.01243 10.921 3.67938 19.9987H36.3249ZM33.9796 17.7765H32.8001C32.7217 16.9542 32.5577 16.1559 32.3159 15.3883L33.3688 14.8878C33.676 15.8133 33.8924 16.7767 33.9796 17.7765ZM29.5649 9.14604C30.7487 10.1969 31.737 11.4418 32.4832 12.8239L31.435 13.3222C30.7453 12.047 29.8263 10.9059 28.7305 9.93922L29.5649 9.14604ZM21.171 6.66536V5.60769C23.5742 5.79744 25.8037 6.56567 27.7119 7.76515L26.865 8.5702C25.184 7.55614 23.2452 6.89906 21.1591 6.72104C21.1602 6.70151 21.171 6.6851 21.171 6.66536ZM21.5053 14.7764L25.0199 11.4353C25.4765 11.0013 26.2161 11.0013 26.6727 11.4353C27.1293 11.8694 27.1293 12.5725 26.6727 13.0065L23.1581 16.3476C23.3764 16.7821 23.5086 17.2628 23.5086 17.7765H16.4956C16.4956 15.9355 18.0655 14.4431 20.0021 14.4431C20.5425 14.4431 21.0482 14.5689 21.5053 14.7764ZM18.8333 5.60769V6.66536C18.8333 6.6851 18.8441 6.70151 18.8451 6.72104C16.759 6.89906 14.8202 7.55614 13.1392 8.5702L12.2924 7.76515C14.2006 6.56567 16.4301 5.79744 18.8333 5.60769ZM10.4394 9.14604L11.2738 9.93922C10.1779 10.9059 9.25901 12.047 8.5693 13.3222L7.5211 12.8239C8.26731 11.4418 9.25558 10.1969 10.4394 9.14604ZM6.63549 14.8878L7.68839 15.3883C7.44655 16.1559 7.28261 16.9542 7.20421 17.7765H6.02468C6.11185 16.7767 6.32823 15.8133 6.63549 14.8878Z" fill="white" fill-opacity="0.92"/>
</g>
</g>
</svg>
