<svg width="40" height="40" viewBox="0 0 40 40" fill="none" xmlns="http://www.w3.org/2000/svg">
<g id="&#208;&#158;&#208;&#191;&#209;&#139;&#209;&#130; &#208;&#191;&#208;&#190;&#208;&#187;&#209;&#140;&#208;&#183;&#208;&#190;&#208;&#178;&#208;&#176;&#209;&#130;&#208;&#181;&#208;&#187;&#209;&#143;">
<g id="Vector">
<path d="M8.69308 30.713C10.3368 30.713 11.6693 29.3805 11.6693 27.7368C11.6693 26.0931 10.3368 24.7606 8.69308 24.7606C7.04938 24.7606 5.71689 26.0931 5.71689 27.7368C5.71689 29.3805 7.04938 30.713 8.69308 30.713Z" fill="white" fill-opacity="0.92"/>
<path d="M10.4788 30.713H8.69308H6.90737C4.93797 30.713 3.33594 32.315 3.33594 34.2844V35.4749C3.33594 36.1323 3.86898 36.6654 4.52641 36.6654H12.8597C13.5172 36.6654 14.0502 36.1323 14.0502 35.4749V34.2844C14.0502 32.315 12.4482 30.713 10.4788 30.713Z" fill="white" fill-opacity="0.92"/>
<path d="M31.3121 9.28441C32.9558 9.28441 34.2883 7.95193 34.2883 6.30822C34.2883 4.66452 32.9558 3.33203 31.3121 3.33203C29.6684 3.33203 28.3359 4.66452 28.3359 6.30822C28.3359 7.95193 29.6684 9.28441 31.3121 9.28441Z" fill="white" fill-opacity="0.92"/>
<path d="M33.0978 9.28441H31.3121H29.5264C27.557 9.28441 25.955 10.8864 25.955 12.8558V14.0463C25.955 14.7038 26.488 15.2368 27.1455 15.2368H35.4788C36.1362 15.2368 36.6693 14.7038 36.6693 14.0463V12.8558C36.6693 10.8864 35.0672 9.28441 33.0978 9.28441Z" fill="white" fill-opacity="0.92"/>
<path d="M24.7645 14.0463C24.7645 12.9083 24.5826 11.8128 24.2523 10.783L22.274 12.7612C22.3395 13.1812 22.3836 13.6082 22.3836 14.0463C22.3836 18.6414 18.6453 22.3797 14.0502 22.3797C9.45515 22.3797 5.71689 18.6414 5.71689 14.0463C5.71689 9.45124 9.45515 5.71298 14.0502 5.71298C16.3688 5.71298 18.4674 6.66651 19.9794 8.1998L21.635 6.48733C19.6939 4.53966 17.0106 3.33203 14.0502 3.33203C8.1426 3.33203 3.33594 8.1387 3.33594 14.0463C3.33594 19.9539 8.1426 24.7606 14.0502 24.7606C19.9578 24.7606 24.7645 19.9539 24.7645 14.0463Z" fill="white" fill-opacity="0.92"/>
<path d="M23.1614 6.82063L16.4286 13.5534L13.6989 10.8237C13.2339 10.3586 12.4805 10.3586 12.0155 10.8237L7.11198 15.7272C7.31667 16.5742 7.66587 17.3645 8.14238 18.0636L12.8572 13.3488L15.5869 16.0785C16.052 16.5435 16.8053 16.5435 17.2703 16.0785L24.8448 8.50403C25.0129 8.95758 25.4405 9.28441 25.9524 9.28441C26.6099 9.28441 27.1429 8.75137 27.1429 8.09394V5.71298C27.1429 5.05555 26.6099 4.52251 25.9524 4.52251H23.5715C22.9141 4.52251 22.381 5.05555 22.381 5.71298C22.381 6.22495 22.7078 6.65249 23.1614 6.82063Z" fill="white" fill-opacity="0.92"/>
<path d="M14.5432 9.98196L16.4312 11.87L19.1983 9.10254C17.8985 7.74938 16.0747 6.90346 14.0502 6.90346C10.1053 6.90346 6.90737 10.1014 6.90737 14.0463C6.90737 14.1121 6.91543 14.1758 6.91718 14.2411L11.1763 9.98196C11.6263 9.53204 12.2238 9.28441 12.8597 9.28441C13.4957 9.28441 14.0932 9.53204 14.5432 9.98196Z" fill="white" fill-opacity="0.92"/>
<path d="M16.4268 17.6169C15.7909 17.6169 15.1933 17.3693 14.7434 16.9194L12.8554 15.0314L8.89769 18.9891C9.3822 19.4934 9.93972 19.9268 10.5529 20.2727C10.5574 20.2752 10.5616 20.2782 10.5661 20.2806C10.7567 20.3876 10.9537 20.4842 11.1546 20.5737C11.1723 20.5815 11.1891 20.5911 11.2069 20.5988C11.3929 20.6798 11.5847 20.7496 11.7786 20.8148C11.8131 20.8264 11.846 20.8411 11.8807 20.8522C12.0615 20.9099 12.2474 20.9556 12.4342 20.999C12.4837 21.0104 12.5313 21.0264 12.5811 21.0368C12.763 21.0749 12.9493 21.1002 13.1361 21.1241C13.1925 21.1313 13.2474 21.1438 13.3044 21.1497C13.5481 21.175 13.7953 21.1884 14.0459 21.1884C17.9908 21.1884 21.1887 17.9904 21.1887 14.0455C21.1887 13.9798 21.1807 13.9163 21.1789 13.851L18.1102 16.9194C17.6603 17.3693 17.0627 17.6169 16.4268 17.6169Z" fill="white" fill-opacity="0.92"/>
<path d="M25.6035 21.5375C25.2258 21.1599 24.6653 21.1051 24.2162 21.3407L23.7693 20.8939C22.9821 22.0084 22.0099 22.9805 20.8955 23.7678L21.3423 24.2146C21.1067 24.6637 21.1615 25.2243 21.5391 25.6019L25.8081 29.8708C26.351 30.4138 27.0724 30.7126 27.8402 30.7126C28.6081 30.7126 29.3295 30.4138 29.8724 29.8708C30.4153 29.3279 30.7141 28.6065 30.7141 27.8387C30.7141 27.0708 30.4153 26.3494 29.8724 25.8065L25.6035 21.5375Z" fill="white" fill-opacity="0.92"/>
</g>
</g>
</svg>
