<svg width="32" height="32" viewBox="0 0 32 32" fill="none" xmlns="http://www.w3.org/2000/svg">
<g id="Mobile">
<g id="Vector">
<path d="M23.5349 2.66797H14.9954V4.04339H22.8472V27.9592H9.37542V4.04339H12.0158V2.66797H8.68771C8.30809 2.66797 8 2.97606 8 3.35568V28.6469C8 29.0265 8.30809 29.3346 8.68771 29.3346H23.5354C23.915 29.3346 24.2231 29.0265 24.2231 28.6469V3.35568C24.2226 2.97606 23.915 2.66797 23.5349 2.66797Z" fill="#9DA2AD"/>
<path d="M21.4984 5.80026H10.7243V16.8036H21.4984V5.80026Z" fill="#9DA2AD"/>
<path d="M13.5054 17.8971H10.7243V19.9735H13.5054V17.8971Z" fill="#9DA2AD"/>
<path d="M17.5019 17.8971H14.7208V19.9735H17.5019V17.8971Z" fill="#9DA2AD"/>
<path d="M21.4984 17.8971H18.7173V19.9735H21.4984V17.8971Z" fill="#9DA2AD"/>
<path d="M13.5054 21.0124H10.7243V23.087H13.5054V21.0124Z" fill="#9DA2AD"/>
<path d="M17.5019 21.0124H14.7208V23.087H17.5019V21.0124Z" fill="#9DA2AD"/>
<path d="M21.4984 21.0124H18.7173V23.087H21.4984V21.0124Z" fill="#9DA2AD"/>
<path d="M13.5054 24.1259H10.7243V26.2023H13.5054V24.1259Z" fill="#9DA2AD"/>
<path d="M17.5019 24.1259H14.7208V26.2023H17.5019V24.1259Z" fill="#9DA2AD"/>
<path d="M21.4984 24.1259H18.7173V26.2023H21.4984V24.1259Z" fill="#9DA2AD"/>
</g>
</g>
</svg>
