<svg width="40" height="40" viewBox="0 0 40 40" fill="none" xmlns="http://www.w3.org/2000/svg">
<g id="&#208;&#159;&#209;&#128;&#208;&#190;&#208;&#178;&#208;&#181;&#209;&#128;&#208;&#190;&#208;&#186; &#209;&#129;&#208;&#181;&#208;&#179;&#208;&#190;&#208;&#180;&#208;&#189;&#209;&#143;">
<g id="Vector">
<path d="M23.4667 21.1416L24.3352 20.6402L23.5944 19.3571L22.7248 19.8592C22.4915 19.9939 22.1995 19.9717 21.9893 19.8032C21.7378 19.6017 21.4586 19.4403 21.1591 19.3233C20.9084 19.2254 20.7433 18.9837 20.7433 18.7145V17.7111H19.2619V18.7145C19.2619 18.9837 19.0969 19.2254 18.8461 19.3233C18.5467 19.4403 18.2674 19.6017 18.0159 19.8032C17.8058 19.9717 17.5137 19.9939 17.2804 19.8592L16.4108 19.3571L15.6701 20.6402L16.5385 21.1416C16.7714 21.2761 16.8982 21.5395 16.8579 21.8055C16.8115 22.1126 16.808 22.4372 16.8579 22.767C16.8982 23.0329 16.7715 23.2965 16.5385 23.4309L15.6701 23.9323L16.4108 25.2154L17.2804 24.7133C17.5137 24.5786 17.8057 24.6008 18.0159 24.7693C18.2674 24.9708 18.5467 25.1322 18.8461 25.2492C19.0969 25.3471 19.2619 25.5888 19.2619 25.858V26.8614H20.7433V25.858C20.7433 25.5888 20.9084 25.3472 21.1591 25.2493C21.4586 25.1323 21.7378 24.9709 21.9893 24.7694C22.1993 24.6009 22.4915 24.5786 22.7248 24.7133L23.5944 25.2154L24.3352 23.9324L23.4667 23.431C23.2338 23.2965 23.107 23.033 23.1473 22.7671C23.1937 22.46 23.1972 22.1354 23.1473 21.8056C23.107 21.5395 23.2338 21.2761 23.4667 21.1416ZM20.0026 24.2471C18.9214 24.2471 18.0418 23.3675 18.0418 22.2863C18.0418 21.2051 18.9214 20.3255 20.0026 20.3255C21.0838 20.3255 21.9634 21.2051 21.9634 22.2863C21.9634 23.3675 21.0838 24.2471 20.0026 24.2471Z" fill="white" fill-opacity="0.92"/>
<path d="M20.0026 22.9399C20.3636 22.9399 20.6562 22.6473 20.6562 22.2863C20.6562 21.9253 20.3636 21.6327 20.0026 21.6327C19.6416 21.6327 19.349 21.9253 19.349 22.2863C19.349 22.6473 19.6416 22.9399 20.0026 22.9399Z" fill="white" fill-opacity="0.92"/>
<path d="M7.9111 14.4431C7.9111 14.0822 8.20378 13.7895 8.5647 13.7895H31.4405C31.8014 13.7895 32.0941 14.0822 32.0941 14.4431V29.4758H34.7085V13.7895C34.7085 12.348 33.5357 11.1752 32.0941 11.1752H29.4797V10.2178L31.1495 9.10465C31.3313 8.9834 31.4405 8.77935 31.4405 8.56079V7.14118C32.2012 6.87138 32.7477 6.14491 32.7477 5.29282C32.7477 4.21164 31.8681 3.33203 30.7869 3.33203C29.7057 3.33203 28.8261 4.21164 28.8261 5.29282C28.8261 6.14484 29.3726 6.87138 30.1333 7.14118V8.21105L28.4636 9.32419C28.2818 9.44536 28.1725 9.64948 28.1725 9.86798V11.1752H22.2902V10.2178L23.9599 9.10465C24.1418 8.9834 24.251 8.77935 24.251 8.56079V7.14118C25.0117 6.87138 25.5582 6.14491 25.5582 5.29282C25.5582 4.21164 24.6786 3.33203 23.5974 3.33203C22.5162 3.33203 21.6366 4.21164 21.6366 5.29282C21.6366 6.14484 22.1831 6.87138 22.9438 7.14118V8.21105L21.274 9.32419C21.0922 9.44536 20.983 9.64948 20.983 9.86798V11.1752H19.0222V9.86798C19.0222 9.64942 18.913 9.44536 18.7312 9.32419L17.0614 8.21099V7.14118C17.8221 6.87138 18.3686 6.14491 18.3686 5.29282C18.3686 4.21164 17.489 3.33203 16.4078 3.33203C15.3267 3.33203 14.447 4.21164 14.447 5.29282C14.447 6.14484 14.9935 6.87138 15.7542 7.14118V8.56079C15.7542 8.77935 15.8635 8.9834 16.0453 9.10458L17.715 10.2178V11.1752H11.8327V9.86798C11.8327 9.64942 11.7235 9.44536 11.5416 9.32419L9.87189 8.21099V7.14118C10.6326 6.87138 11.1791 6.14491 11.1791 5.29282C11.1791 4.21164 10.2995 3.33203 9.21829 3.33203C8.13711 3.33203 7.25751 4.21164 7.25751 5.29282C7.25751 6.14484 7.80398 6.87138 8.5647 7.14118V8.56079C8.5647 8.77935 8.67391 8.9834 8.85574 9.10458L10.5255 10.2178V11.1752H7.9111C6.46953 11.1752 5.29672 12.348 5.29672 13.7895V29.4758H7.9111V14.4431Z" fill="white" fill-opacity="0.92"/>
<path d="M30.7869 15.0967H9.21829V29.4758H30.7869V15.0967ZM24.4851 22.5095L25.5548 23.1271C25.8674 23.3075 25.9745 23.7073 25.794 24.0199L24.3997 26.435C24.2193 26.7473 23.8194 26.8548 23.5069 26.6742L22.4367 26.0563C22.3117 26.1371 22.1828 26.2116 22.0505 26.2795V27.515C22.0505 27.876 21.7578 28.1686 21.3969 28.1686H18.6083C18.2474 28.1686 17.9547 27.876 17.9547 27.515V26.2796C17.8224 26.2117 17.6935 26.1372 17.5686 26.0563L16.4984 26.6743C16.1863 26.8546 15.7861 26.7477 15.6055 26.435L14.2112 24.0199C14.0307 23.7073 14.1378 23.3076 14.4504 23.1271L15.5201 22.5095C15.5127 22.3607 15.5127 22.212 15.5201 22.0631L14.4504 21.4456C14.1378 21.2651 14.0307 20.8654 14.2112 20.5528L15.6055 18.1377C15.7859 17.8252 16.1858 17.7179 16.4984 17.8984L17.5686 18.5163C17.6935 18.4355 17.8224 18.361 17.9547 18.2931V17.0575C17.9547 16.6966 18.2474 16.4039 18.6083 16.4039H21.3969C21.7578 16.4039 22.0505 16.6966 22.0505 17.0575V18.2929C22.1828 18.3609 22.3117 18.4354 22.4367 18.5162L23.5069 17.8983C23.8197 17.7176 24.2195 17.8254 24.3997 18.1375L25.794 20.5526C25.9745 20.8652 25.8674 21.265 25.5548 21.4454L24.4851 22.063C24.4925 22.2119 24.4925 22.3607 24.4851 22.5095Z" fill="white" fill-opacity="0.92"/>
<path d="M25.1052 32.0902L25.5954 30.783H14.4098L14.9 32.0902H25.1052Z" fill="white" fill-opacity="0.92"/>
<path d="M34.7521 30.783H26.9915L26.1701 32.9733C26.0744 33.2284 25.8306 33.3974 25.5582 33.3974H14.447C14.1746 33.3974 13.9308 33.2284 13.8351 32.9733L13.0137 30.783H5.25313C4.1943 30.783 3.33594 31.6414 3.33594 32.7002C3.33594 34.8901 5.11117 36.6654 7.3011 36.6654H32.7042C34.894 36.6654 36.6693 34.8901 36.6693 32.7002C36.6693 31.6414 35.8109 30.783 34.7521 30.783Z" fill="white" fill-opacity="0.92"/>
</g>
</g>
</svg>
