<svg width="25" height="24" viewBox="0 0 25 24" fill="none" xmlns="http://www.w3.org/2000/svg">
<g id="Update">
<g id="Vector">
<path d="M21.928 10.8185H20.0129C19.6341 7.00939 16.4143 4 12.5 4C10.9216 4 9.42744 4.48403 8.14372 5.38895C7.72282 5.68357 7.6176 6.29387 7.91223 6.71476C8.20685 7.13566 8.81715 7.24088 9.23804 6.94625C10.185 6.27282 11.3215 5.91506 12.4789 5.91506C15.341 5.91506 17.719 8.06162 18.0768 10.8395H16.2459C15.7829 10.8395 15.5093 11.3867 15.7829 11.7444L18.6029 15.5114C18.8344 15.8061 19.2974 15.8061 19.5078 15.5114L22.391 11.7234C22.6645 11.3446 22.391 10.8185 21.928 10.8185Z" fill="#888BEB"/>
<path d="M15.7619 16.1639C14.8149 16.8373 13.6785 17.1951 12.5 17.1951C9.63793 17.1951 7.25988 15.0485 6.90212 12.2706H8.73301C9.19599 12.2706 9.46957 11.7235 9.19599 11.3657L6.35496 7.61977C6.12347 7.32514 5.66048 7.32514 5.45004 7.61977L2.60901 11.3868C2.33543 11.7656 2.60901 12.2917 3.07199 12.2917H4.98705C5.36586 16.1008 8.58569 19.1102 12.5 19.1102C14.0784 19.1102 15.5725 18.6261 16.8562 17.7212C17.2771 17.4266 17.3824 16.8163 17.0877 16.3954C16.7721 15.9745 16.1828 15.8693 15.7619 16.1639Z" fill="#888BEB"/>
</g>
</g>
</svg>
