<svg width="40" height="40" viewBox="0 0 40 40" fill="none" xmlns="http://www.w3.org/2000/svg">
<g id="&#208;&#148;&#208;&#176;&#208;&#189;&#208;&#189;&#209;&#139;&#209;&#133; &#208;&#178; &#208;&#177;&#208;&#176;&#208;&#183;&#208;&#181;">
<g id="Vector">
<path d="M21.1931 4.52251C21.1931 3.86507 20.6606 3.33203 20.0026 3.33203H4.52641C3.8684 3.33203 3.33594 3.86507 3.33594 4.52251V30.713C3.33594 31.3704 3.8684 31.9035 4.52641 31.9035C5.18443 31.9035 5.71689 31.3704 5.71689 30.713V5.71298H20.0026C20.6606 5.71298 21.1931 5.17994 21.1931 4.52251Z" fill="white" fill-opacity="0.92"/>
<path d="M23.574 8.09394C23.574 7.4365 23.0416 6.90346 22.3836 6.90346H8.09784C7.43983 6.90346 6.90737 7.4365 6.90737 8.09394V33.0939C6.90737 33.7514 7.43983 34.2844 8.09784 34.2844C8.75586 34.2844 9.28832 33.7514 9.28832 33.0939V9.28441H22.3836C23.0416 9.28441 23.574 8.75137 23.574 8.09394Z" fill="white" fill-opacity="0.92"/>
<path d="M34.2883 24.7606C34.2883 22.1349 32.1527 19.9987 29.5264 19.9987C26.9002 19.9987 24.7645 22.1349 24.7645 24.7606C24.7645 27.3863 26.9002 29.5225 29.5264 29.5225C32.1527 29.5225 34.2883 27.3863 34.2883 24.7606Z" fill="white" fill-opacity="0.92"/>
<path d="M33.0978 29.5225H29.5264H25.955C23.9856 29.5225 22.3836 31.1245 22.3836 33.0939V35.4749C22.3836 36.1323 22.916 36.6654 23.574 36.6654H35.4788C36.1368 36.6654 36.6693 36.1323 36.6693 35.4749V33.0939C36.6693 31.1245 35.0672 29.5225 33.0978 29.5225Z" fill="white" fill-opacity="0.92"/>
<path d="M14.6455 30.713H21.84C22.4954 29.5899 23.5953 28.7563 24.8997 28.459C24.8678 28.4191 24.8443 28.3727 24.8133 28.332H14.6455C14.3165 28.332 14.0502 28.0658 14.0502 27.7368C14.0502 27.4078 14.3165 27.1416 14.6455 27.1416H24.1114C23.7801 26.4115 23.574 25.6147 23.574 24.7606H14.6455C14.3165 24.7606 14.0502 24.4944 14.0502 24.1654C14.0502 23.8364 14.3165 23.5701 14.6455 23.5701H23.6944C23.8748 22.685 24.2685 21.8847 24.795 21.1892H14.6455C14.3165 21.1892 14.0502 20.9229 14.0502 20.5939C14.0502 20.2649 14.3165 19.9987 14.6455 19.9987H25.9918C26.9831 19.2606 28.1984 18.8082 29.5264 18.8082C29.934 18.8082 30.3321 18.8501 30.7169 18.9285V15.2368C30.7169 14.9212 30.5913 14.6183 30.3681 14.3951L26.7967 10.8237C26.5735 10.6004 26.2712 10.4749 25.955 10.4749H11.6693C11.0113 10.4749 10.4788 11.0079 10.4788 11.6654V35.4749C10.4788 36.1323 11.0113 36.6654 11.6693 36.6654H21.5243C21.3192 36.3138 21.1931 35.9105 21.1931 35.4749V33.0939C21.1931 32.6804 21.2623 32.2858 21.3621 31.9035H14.6455C14.3165 31.9035 14.0502 31.6372 14.0502 31.3082C14.0502 30.9792 14.3165 30.713 14.6455 30.713ZM14.6455 16.4273H26.5502C26.8792 16.4273 27.1455 16.6935 27.1455 17.0225C27.1455 17.3515 26.8792 17.6177 26.5502 17.6177H14.6455C14.3165 17.6177 14.0502 17.3515 14.0502 17.0225C14.0502 16.6935 14.3165 16.4273 14.6455 16.4273Z" fill="white" fill-opacity="0.92"/>
</g>
</g>
</svg>
