<svg width="229" height="200" viewBox="0 0 229 200" fill="none" xmlns="http://www.w3.org/2000/svg">
<g id="Group 57">
<g id="Vector">
<path d="M71.165 103.067C71.165 122.719 55.2342 138.649 35.5825 138.649C15.9308 138.649 0 122.719 0 103.067C0 83.4152 15.9308 67.4844 35.5825 67.4844C55.2342 67.4844 71.165 83.4152 71.165 103.067Z" fill="#4146CF"/>
<path d="M101.84 119.018L72.392 190.183L8.58888 126.38C8.58888 126.38 26.9737 78.5272 46.6254 78.5272C56.7633 78.5272 62.5761 79.7542 62.5761 79.7542L101.84 119.018Z" fill="#4146CF"/>
</g>
<circle id="Ellipse 274" cx="96.9263" cy="35.5825" r="35.5825" fill="#4146CF"/>
<g id="Vector_2">
<path d="M217.792 93.8759C211.751 99.9167 121.466 190.185 121.466 190.185C121.466 190.185 79.6282 147.12 71.7731 139.265C71.7731 139.265 153.574 57.4505 167.47 43.5547C181.366 29.6588 203.896 29.6589 217.792 43.5547C231.687 57.4505 231.687 79.9801 217.792 93.8759Z" fill="#009DBD"/>
<path d="M122.087 189.579C108.191 203.475 85.6615 203.475 71.7656 189.579C57.8698 175.683 57.8698 153.153 71.7656 139.258C85.6615 125.362 108.191 125.362 122.087 139.258C135.983 153.153 135.983 175.683 122.087 189.579Z" fill="#009DBD"/>
</g>
</g>
</svg>
