<svg width="132" height="34" viewBox="0 0 132 34" fill="none" xmlns="http://www.w3.org/2000/svg">
<g id="Group 59">
<g id="Rosstat.com">
<path id="Vector" d="M130.099 24.9176C129.069 24.9176 128.203 24.0514 128.203 23.0213C128.203 21.9912 129.069 21.125 130.099 21.125C131.13 21.125 131.996 21.9912 131.996 23.0213C131.996 24.0514 131.13 24.9176 130.099 24.9176Z" fill="#009DBD"/>
<path id="Vector_2" d="M123.635 24.9014C121.551 24.9014 120.428 23.8245 120.428 21.8112V15.9116H118.555V13.3129H120.428V10.2227H123.424V13.3129H125.719V15.9116H123.424V21.0152C123.424 21.7175 123.799 22.256 124.454 22.256C124.899 22.256 125.321 22.0921 125.484 21.9282L126.116 24.1757C125.672 24.5737 124.876 24.9014 123.635 24.9014Z" fill="white"/>
<path id="Vector_3" d="M116.894 24.5924H113.921V23.4219C113.149 24.3349 111.814 24.8734 110.339 24.8734C108.537 24.8734 106.406 23.656 106.406 21.1276C106.406 18.4821 108.537 17.4754 110.339 17.4754C111.838 17.4754 113.172 17.9671 113.921 18.8567V17.335C113.921 16.1878 112.938 15.4387 111.44 15.4387C110.222 15.4387 109.099 15.8835 108.139 16.7731L107.015 14.7832C108.396 13.5658 110.175 13.0039 111.955 13.0039C114.53 13.0039 116.894 14.034 116.894 17.2881V24.5924ZM111.533 22.86C112.493 22.86 113.43 22.5322 113.921 21.8767V20.4721C113.43 19.8166 112.493 19.4888 111.533 19.4888C110.363 19.4888 109.403 20.0975 109.403 21.1978C109.403 22.2513 110.363 22.86 111.533 22.86Z" fill="white"/>
<path id="Vector_4" d="M103.018 24.8741C100.934 24.8741 99.8104 23.7972 99.8104 21.7838V15.8842H97.9375V13.2856H99.8104V10.1953H102.807V13.2856H105.101V15.8842H102.807V20.9879C102.807 21.6902 103.182 22.2286 103.837 22.2286C104.282 22.2286 104.703 22.0648 104.867 21.9009L105.499 24.1484C105.054 24.5463 104.259 24.8741 103.018 24.8741Z" fill="white"/>
<path id="Vector_5" d="M92.1427 24.8734C90.1762 24.8734 88.2799 24.2178 87.0859 23.1175L88.3736 21.0339C89.1929 21.8065 90.8785 22.5791 92.2832 22.5791C93.5708 22.5791 94.1795 22.064 94.1795 21.3617C94.1795 19.4888 87.4605 21.0105 87.4605 16.5624C87.4605 14.6661 89.1227 13.0039 92.0959 13.0039C94.0156 13.0039 95.5374 13.6594 96.6611 14.549L95.4671 16.5858C94.7882 15.8601 93.5006 15.2748 92.1193 15.2748C91.0424 15.2748 90.3401 15.7664 90.3401 16.3985C90.3401 18.0841 97.0357 16.6795 97.0357 21.2446C97.0357 23.3048 95.2798 24.8734 92.1427 24.8734Z" fill="white"/>
<path id="Vector_6" d="M80.9865 24.8734C79.02 24.8734 77.1237 24.2178 75.9297 23.1175L77.2173 21.0339C78.0367 21.8065 79.7223 22.5791 81.127 22.5791C82.4146 22.5791 83.0233 22.064 83.0233 21.3617C83.0233 19.4888 76.3043 21.0105 76.3043 16.5624C76.3043 14.6661 77.9665 13.0039 80.9397 13.0039C82.8594 13.0039 84.3811 13.6594 85.5048 14.549L84.3109 16.5858C83.632 15.8601 82.3443 15.2748 80.9631 15.2748C79.8862 15.2748 79.1838 15.7664 79.1838 16.3985C79.1838 18.0841 85.8794 16.6795 85.8794 21.2446C85.8794 23.3048 84.1236 24.8734 80.9865 24.8734Z" fill="white"/>
<path id="Vector_7" d="M68.712 24.8734C64.9897 24.8734 62.7422 22.1577 62.7422 18.9269C62.7422 15.7196 64.9897 13.0039 68.712 13.0039C72.4578 13.0039 74.7053 15.7196 74.7053 18.9269C74.7053 22.1577 72.4578 24.8734 68.712 24.8734ZM68.712 22.2279C70.5615 22.2279 71.615 20.7062 71.615 18.9269C71.615 17.1711 70.5615 15.6494 68.712 15.6494C66.8625 15.6494 65.8325 17.1711 65.8325 18.9269C65.8325 20.7062 66.8625 22.2279 68.712 22.2279Z" fill="white"/>
<path id="Vector_8" d="M61.8451 24.5918H58.0291L54.9623 19.0434H52.5275V24.5918H49.2031V8.97656H56.5074C59.7616 8.97656 61.7515 11.107 61.7515 14.01C61.7515 16.7725 60.0191 18.2474 58.3335 18.6454L61.8451 24.5918ZM56.0158 16.117C57.3502 16.117 58.3569 15.321 58.3569 14.01C58.3569 12.6989 57.3502 11.903 56.0158 11.903H52.5275V16.117H56.0158Z" fill="white"/>
</g>
<g id="Group 57">
<g id="Vector_9">
<path d="M11.4189 17.4907C11.4189 20.6439 8.86267 23.2001 5.70944 23.2001C2.5562 23.2001 0 20.6439 0 17.4907C0 14.3375 2.5562 11.7812 5.70944 11.7812C8.86267 11.7812 11.4189 14.3375 11.4189 17.4907Z" fill="#4146CF"/>
<path d="M16.3408 20.0501L11.6158 31.469L1.37814 21.2314C1.37814 21.2314 4.3281 13.5531 7.48133 13.5531C9.10803 13.5531 10.0407 13.75 10.0407 13.75L16.3408 20.0501Z" fill="#4146CF"/>
</g>
<circle id="Ellipse 274" cx="15.5532" cy="6.66256" r="5.70944" fill="#4146CF"/>
<g id="Vector_10">
<path d="M34.9468 16.0161C33.9775 16.9854 19.4907 31.4695 19.4907 31.4695C19.4907 31.4695 12.7776 24.5595 11.5172 23.2991C11.5172 23.2991 24.6427 10.1715 26.8724 7.94179C29.1021 5.71211 32.7171 5.71211 34.9468 7.94179C37.1765 10.1715 37.1765 13.7865 34.9468 16.0161Z" fill="#009DBD"/>
<path d="M19.5904 31.3723C17.3607 33.602 13.7457 33.602 11.516 31.3723C9.28633 29.1426 9.28633 25.5276 11.516 23.2979C13.7457 21.0682 17.3607 21.0682 19.5904 23.2979C21.82 25.5276 21.82 29.1426 19.5904 31.3723Z" fill="#009DBD"/>
</g>
</g>
</g>
</svg>
