<svg width="224" height="170" viewBox="0 0 224 170" fill="none" xmlns="http://www.w3.org/2000/svg">
    <g opacity="0.6" filter="url(#filter0_f_0_1)">
        <rect x="104" width="120" height="120" rx="60" fill="url(#paint0_radial_0_1)"/>
    </g>
    <g opacity="0.2">
        <path d="M185.135 24.5359L184.386 27.3331C179.59 26.4041 174.62 27.3311 170.482 29.9266C166.343 32.522 163.345 36.5924 162.092 41.3145C162.003 41.6333 162.034 41.9736 162.178 42.2715C162.322 42.5694 162.57 42.8043 162.876 42.9321C163.181 43.06 163.522 43.0719 163.836 42.9656C164.149 42.8593 164.413 42.6422 164.577 42.3551C164.946 41.6798 165.441 41.081 166.034 40.5905C166.569 40.2781 167.186 40.1323 167.805 40.1718C168.424 40.2113 169.017 40.4343 169.509 40.8123C170.001 41.1903 170.369 41.7063 170.566 42.2943C170.764 42.8824 170.781 43.5159 170.617 44.114C170.524 44.4618 170.573 44.8323 170.753 45.1441C170.933 45.4558 171.229 45.6833 171.577 45.7765C171.925 45.8697 172.295 45.8209 172.607 45.6409C172.919 45.4609 173.146 45.1644 173.24 44.8167C173.263 44.7292 173.275 44.6855 173.298 44.5981C173.324 44.527 173.343 44.4539 173.357 44.3796C173.645 43.6827 174.176 43.1138 174.852 42.7781C175.527 42.4424 176.301 42.3627 177.031 42.5535C177.428 42.6539 177.802 42.8315 178.131 43.0764C178.46 43.3213 178.738 43.6285 178.948 43.9807C179.158 44.3328 179.297 44.7228 179.356 45.1286C179.416 45.5343 179.395 45.9477 179.294 46.3453L175.783 59.4572C175.705 59.747 175.515 59.9941 175.256 60.1441C174.996 60.2941 174.687 60.3347 174.397 60.2571C174.107 60.1794 173.86 59.9898 173.71 59.73C173.56 59.4702 173.52 59.1614 173.597 58.8717L173.948 57.5605L171.326 56.8578L170.975 58.169C170.711 59.1543 170.849 60.2041 171.359 61.0875C171.87 61.9709 172.71 62.6154 173.695 62.8794C174.68 63.1434 175.73 63.0052 176.613 62.4952C177.496 61.9852 178.141 61.1451 178.405 60.1598L181.917 47.048C182.143 46.3084 182.636 45.6793 183.3 45.2825C183.964 44.8857 184.751 44.7495 185.51 44.9003C186.268 45.0511 186.944 45.4781 187.406 46.0986C187.868 46.7191 188.083 47.489 188.009 48.259C187.984 48.33 187.964 48.4031 187.951 48.4775C187.927 48.5649 187.916 48.6086 187.892 48.696C187.799 49.0438 187.848 49.4143 188.028 49.7261C188.208 50.0379 188.505 50.2654 188.852 50.3585C189.2 50.4517 189.571 50.4029 189.882 50.2229C190.194 50.0429 190.422 49.7464 190.515 49.3987C190.671 48.7986 191.003 48.2588 191.468 47.8482C191.933 47.4376 192.51 47.1747 193.125 47.0932C193.739 47.0117 194.365 47.1152 194.92 47.3905C195.476 47.6658 195.938 48.1004 196.245 48.6389C196.514 49.3602 196.643 50.126 196.625 50.8953C196.624 51.2263 196.744 51.5462 196.962 51.795C197.18 52.0437 197.482 52.2041 197.81 52.246C198.139 52.288 198.471 52.2085 198.745 52.0226C199.018 51.8367 199.215 51.5572 199.297 51.2366C200.545 46.5371 199.971 41.5393 197.69 37.2447C195.409 32.9502 191.59 29.6764 186.997 28.0794L187.758 25.2385L185.135 24.5359ZM169.135 37.5805C168.332 37.3743 167.495 37.3415 166.678 37.4843C167.981 35.4276 169.719 33.6818 171.77 32.3698C173.821 31.0579 176.135 30.2118 178.549 29.8911C176.066 31.9896 173.76 35.3533 172.12 39.5514C171.349 38.61 170.3 37.9357 169.123 37.6242L169.135 37.5805ZM177.789 39.8992C176.854 39.6563 175.873 39.6511 174.935 39.8841C177.369 34.1189 180.83 30.6429 183.614 30.2177L180.57 41.5813C179.814 40.7807 178.845 40.2123 177.777 39.9429L177.789 39.8992ZM186.442 42.2179C185.375 41.9292 184.247 41.9522 183.192 42.284L186.236 30.9203C188.434 32.6805 189.738 37.433 188.921 43.6315C188.217 42.9751 187.361 42.5043 186.43 42.2616L186.442 42.2179ZM197.272 45.6817C196.479 45.0373 195.531 44.6121 194.523 44.4488C193.514 44.2855 192.481 44.3896 191.525 44.751C192.16 40.2835 191.887 36.2289 190.798 33.1264C192.731 34.6167 194.313 36.5139 195.432 38.6836C196.551 40.8533 197.179 43.2424 197.272 45.6817Z" fill="white"/>
    </g>
    <path opacity="0.08" fill-rule="evenodd" clip-rule="evenodd" d="M-21.9935 3.57636C-22.7805 7.03345 -20.271 11.9232 -16.9664 13.3725C-14.4733 14.4659 -12.616 12.0858 -14.9354 10.7695C-17.4021 9.36963 -19.0186 6.60073 -18.891 3.99502L-18.799 2.12116L-20.2307 2.12175L-21.6627 2.12234L-21.9935 3.57636ZM-15.0399 2.48855C-14.9887 5.55745 -9.57274 9.98692 -8.35371 7.95691C-7.8597 7.13482 -8.04624 5.63802 -8.64227 5.63802C-9.37174 5.63802 -11.0005 4.09903 -11.4314 3.00272C-11.8081 2.04411 -15.0549 1.5818 -15.0399 2.48855ZM-0.869389 5.71126C-3.3889 11.2321 -3.31551 11.3733 3.58333 14.2822C10.0563 17.0116 15.2054 14.9083 13.6806 10.158C13.3489 9.12587 12.7454 8.23377 11.5628 7.02847L9.90867 5.343L10.8644 4.09874C12.4146 2.08103 12.4207 2.12234 10.5725 2.12234H8.91426L7.97351 3.51396C5.19768 7.62028 5.25495 8.29412 8.46557 9.28906C10.0332 9.77481 10.808 10.4888 10.808 11.4474C10.808 12.7646 7.20484 12.1499 2.9545 10.1076C0.329067 8.84579 0.322674 8.80419 2.19528 5.08635C2.957 3.57431 3.58 2.28875 3.58 2.22986C3.58 2.17068 2.94727 2.12234 2.17415 2.12234H0.768309L-0.869389 5.71126ZM21.221 4.80099C21.5074 8.65887 21.2052 8.38553 24.9613 8.18308C30.5338 7.88279 35.8033 6.00951 38.6186 3.32792L39.859 2.14636L37.9714 2.13435C36.6203 2.12585 35.7768 2.28728 35.0032 2.7033C30.4256 5.16428 24.152 5.48538 24.152 3.25849V2.12234H22.5871H21.0223L21.221 4.80099ZM55.288 2.36023C55.288 3.34931 58.1308 4.28272 58.8464 3.52861C59.7605 2.56531 59.2528 2.12234 57.234 2.12234C56.1637 2.12234 55.288 2.22927 55.288 2.36023ZM75.808 2.32244C76.0085 2.40711 76.2484 2.39656 76.3407 2.29929C76.433 2.20202 76.2689 2.13288 75.9759 2.14548C75.6521 2.15954 75.5862 2.22898 75.808 2.32244ZM79.7617 2.68895C78.9914 4.20626 79.6761 5.34505 81.3586 5.34505C82.4889 5.34505 83.8386 3.5834 83.4741 2.58289C83.2062 1.84694 80.1451 1.93425 79.7617 2.68895ZM89.5862 3.66045C91.753 8.762 92.2959 9.06991 95.0617 6.76597C95.8793 6.08481 97.194 5.33948 98.0508 5.07141C99.7736 4.53263 100.212 4.02959 99.9426 2.90018C99.728 1.99929 96.71 1.65358 96.71 2.53016C96.71 2.75428 96.4181 3.01503 96.0611 3.10936C95.7042 3.2037 94.9364 3.67949 94.3548 4.16641C92.9375 5.35354 92.7107 5.297 92.0365 3.5872C91.4633 2.13376 91.4491 2.12234 90.1959 2.12234H88.9329L89.5862 3.66045ZM118.394 2.28845C118.394 5.38841 124.461 5.91312 129.653 3.2623L131.599 2.26882L128.561 2.18503C126.89 2.13904 125.151 2.23806 124.697 2.40476C123.643 2.79207 121.26 2.79881 121.035 2.41531C120.857 2.11208 118.394 1.99372 118.394 2.28845ZM141.903 3.02733C144.219 5.59525 149.13 7.43776 162.945 10.9239C174.246 13.7751 173.036 13.3087 173.854 15.1295C175.905 19.7005 180.885 22.2464 185.121 20.8905C186.859 20.3342 187.178 20.3055 187.575 20.6676C201.331 33.1887 208.615 38.1581 213.211 38.1581C215.551 38.1581 217.805 34.2487 217.304 31.0593L217.015 29.2224L221.372 21.0306C227.022 10.4073 227.046 9.43672 221.622 11.223C219.347 11.9724 218.529 11.8031 217.088 10.2846C215.602 8.71835 215.709 7.09615 217.502 4.02667C218.534 2.26121 218.452 2.12234 216.389 2.12234C215.395 2.12234 214.582 2.22576 214.582 2.35203C214.582 3.60888 210.89 4.03809 209.953 2.89022C209.19 1.95446 206.798 1.73473 206.798 2.60047C206.798 4.22765 209.125 6.12582 211.481 6.41967L212.85 6.59048L212.981 8.03015C213.223 10.6868 216.283 13.6837 219.096 14.0188C219.977 14.124 220.698 14.3285 220.698 14.4735C220.698 14.901 219.109 18.1 216.768 22.3853C215.566 24.587 214.582 26.4986 214.582 26.6334C214.582 26.7685 213.293 26.8754 211.717 26.8716L208.852 26.8646L206.921 25.4181C202.406 22.0343 194.844 15.5859 194.844 15.1195C194.844 15.0513 195.279 14.5925 195.812 14.1C197.236 12.7816 199.213 9.48711 200.733 5.8976C202.418 1.91843 202.449 2.12234 200.148 2.12234H198.223L197.885 3.22099C197.008 6.06635 194.852 9.93624 192.911 12.145C189.847 15.6316 190.012 15.8347 205.516 27.6732C210.085 31.1622 209.761 31.0057 211.15 30.3943C213.809 29.2236 215.39 30.6808 214.167 33.1743C212.082 37.423 204.426 33.382 191.804 21.371L188.907 18.6144L188.887 15.1292C188.862 10.8415 188.27 9.02831 186.82 8.80419C185.107 8.53905 184.637 9.62188 185.445 11.9736C187.38 17.6045 183.681 21.3628 179.488 18.0267C175.977 15.2329 175.601 11.4222 178.445 7.46325C179.722 5.6849 179.805 5.10979 178.911 4.22413C177.571 2.89784 176.114 3.58926 174.809 6.17182C174.347 7.08678 173.766 8.23084 173.519 8.71424C173.272 9.19765 172.98 9.79092 172.869 10.0326C172.305 11.2628 147.982 4.71427 145.513 2.66756C145.019 2.25769 144.388 2.12234 142.971 2.12234H141.086L141.903 3.02733ZM158.009 2.59607C160.152 3.42929 165.645 5.03156 168.603 5.68548L171.588 6.34585L173.36 4.30733L175.132 2.26882L172.868 2.18327C171.472 2.13054 170.459 2.22488 170.225 2.42967C169.945 2.67401 169.472 2.67723 168.431 2.44197C166.062 1.90671 156.596 2.04675 158.009 2.59607ZM186.935 2.78153C187.426 4.47872 189.228 5.40393 190.15 4.43214C190.462 4.10372 190.645 3.63642 190.556 3.39413C190.468 3.15155 190.396 2.76629 190.396 2.53777C190.396 2.22136 189.961 2.12234 188.57 2.12234C186.806 2.12234 186.751 2.14431 186.935 2.78153ZM221.861 3.22099C222.538 5.83197 225.146 5.75697 225.146 3.12694V2.12234H223.362H221.577L221.861 3.22099ZM233.482 3.51396C232.124 5.13733 231.778 5.79125 230.971 8.24812C230.065 11.0053 230.049 10.9845 235.421 14.0874C240.953 17.2831 240.732 16.7672 238.392 21.0268L236.625 24.2419L234.43 24.4373C227.589 25.0464 224.138 29.3912 225.48 35.7077C225.761 37.0269 220.159 39.8149 212.775 42.0315C209.338 43.0634 209.153 43.8529 208.754 59.1895C208.748 59.3966 208.191 59.8159 207.515 60.1212C204.037 61.6924 202.1 65.4011 203.852 67.1358C205.501 68.7677 214.065 68.8386 217.268 67.2469L218.322 66.723L218.651 63.7933C219.472 56.469 220.737 50.6848 221.616 50.2283C223.987 48.9976 224.231 49.3178 224.29 53.7379C224.384 60.7033 227.768 66.852 233.432 70.3489C234.55 71.0388 235.425 71.708 235.378 71.8357C235.331 71.9638 234.301 74.2639 233.087 76.9472C230.417 82.8545 230.415 82.8263 233.477 84.6609C238.135 87.4524 243.248 88.4195 245.767 86.9854L247.067 86.2456L248.48 86.8117C250.692 87.697 251 87.6118 251 86.1135C251 84.9621 250.915 84.8068 250.046 84.37C249.521 84.1063 248.677 83.31 248.17 82.6008C247.405 81.5314 245.787 79.9892 244.536 79.1366C243.952 78.7394 247.57 70.2358 249.07 68.4809C250.37 66.9586 250.041 66.3999 246.274 63.733C244.363 62.38 242.418 60.8841 241.952 60.4092C240.467 58.8948 237.697 59.5516 238.134 61.3145C238.313 62.0343 242.046 65.2681 244.228 66.5938L245.657 67.4619L244.465 70.3152C239.704 81.7136 239.749 81.3615 242.884 82.5495C244.93 83.3253 245.775 84.0313 245.661 84.8713C245.469 86.2793 239.028 84.7652 236.279 82.6658L235.12 81.7819L237.639 76.6707C240.692 70.476 240.695 70.4549 238.484 69.552C230.978 66.4846 227.248 60.0131 227.436 50.3807C227.533 45.382 227.205 45.2114 221.111 47.1011C216.498 48.5317 216.731 48.0073 215.118 60.5706C214.46 65.6985 214.523 65.5705 212.51 65.8626C208.891 66.3876 204.852 65.9924 204.852 65.1132C204.852 64.3526 206.847 62.7688 207.811 62.7635C210.107 62.7512 210.322 62.1532 210.705 54.7111C211.249 44.1307 210.502 45.1801 219.986 41.6799L227.301 38.9805L228.466 39.8702C231.591 42.2559 235.177 42.6585 235.915 40.7064C236.442 39.3162 236.126 38.8697 234.48 38.674C231.142 38.2776 227.648 34.8375 227.648 31.9485C227.648 26.2048 235.589 24.5899 239.149 29.6091C241.695 33.1992 242.54 33.9654 243.404 33.4644C245.234 32.4023 244.753 30.3146 241.957 27.1921C240.292 25.332 240.328 25.1483 243.37 19.9C246.447 14.5925 246.52 14.7683 240.019 11.8042C235.351 9.67608 234.32 9.00663 234.32 8.10632C234.32 6.99742 235.593 4.58478 236.865 3.28427L238.001 2.12234H236.323C234.67 2.12234 234.628 2.14284 233.482 3.51396ZM241.548 2.8325C241.548 3.22304 241.403 4.20567 241.225 5.01604C240.811 6.90748 240.97 7.1067 243.708 8.11746C244.89 8.55399 247.014 9.55713 248.428 10.3467L251 11.7829L250.999 10.981C250.999 10.2488 250.691 10.0136 247.455 8.27478L243.911 6.37045L243.84 5.19856C243.669 2.38953 243.553 2.12234 242.508 2.12234C241.677 2.12234 241.548 2.21785 241.548 2.8325ZM65.435 3.46533C63.7222 4.10928 61.6837 5.88881 60.153 8.07703C58.5309 10.3962 58.5584 10.3924 54.216 8.85927C50.1041 7.40758 50.4589 7.23473 46.1465 12.7878C42.1692 17.9092 40.9226 19.8232 39.9746 22.2643L39.3775 23.8024L36.8383 23.8041C30.7295 23.808 29.6923 25.7773 33.4775 30.1851L35.0021 31.9605L33.8859 36.5303C33.2721 39.0438 32.77 41.4177 32.77 41.8056C32.77 43.2101 32.2454 43.3909 28.2531 43.3628C21.456 43.3147 20.4424 44.9369 24.6844 49.0746C26.845 51.1825 34.4391 55.0694 37.496 55.6322C38.5874 55.8332 39.834 54.8315 40.2312 53.4346C41.0266 50.6373 43.5886 45.333 44.094 45.4376C44.9828 45.6216 47.8176 46.9555 55.7484 50.9212C60.0535 53.074 65.0931 55.4907 66.9476 56.2917C69.9075 57.5705 73.914 59.6835 73.914 59.9659C73.914 60.2565 69.6728 63.6073 66.7944 65.5907C62.0795 68.8401 62.0467 68.9763 65.2668 71.9031C71.6847 77.7365 78.8549 80.6988 80.9171 78.3688C82.8948 76.1339 82.8356 74.0239 80.725 71.5313C78.9856 69.4767 78.9719 69.436 79.8215 68.8474C80.1657 68.6089 81.8014 67.2735 83.4566 65.8796C85.1121 64.4859 87.206 62.8159 88.1098 62.1691C91.602 59.67 91.55 59.6132 78.501 51.6703C76.3604 50.3675 74.4639 49.1997 74.2862 49.0755C73.8375 48.7611 75.4305 39.4533 76.7193 34.8598C77.2553 32.9493 77.3012 32.8866 78.027 33.0691C79.2088 33.3668 82.2084 34.5806 83.0338 35.0959L83.783 35.5635L83.8528 41.7681C83.8911 45.1807 84.0162 48.6844 84.1308 49.5545L84.339 51.136L87.675 52.6638C92.8136 55.0173 96.2802 55.7102 98.0444 54.736C102.192 52.4461 101.41 47.8101 96.3625 44.76C94.6239 43.7091 94.6217 43.7964 96.7559 28.9945C97.5284 23.6354 97.8823 24.004 88.9977 20.911C86.2825 19.9659 83.2348 18.8391 82.2248 18.407L80.3889 17.6218L80.6549 16.0978C81.9952 8.42274 72.7225 0.726609 65.435 3.46533ZM109.832 4.52472C109.125 5.26917 109.442 6.47153 110.54 7.21598C111.114 7.60446 112.204 8.595 112.962 9.4168C114.548 11.1345 115.984 11.4913 116.412 10.2737C117.22 7.97038 111.393 2.87938 109.832 4.52472ZM72.8267 6.43227C77.4638 8.59881 78.8065 14.2213 75.5539 17.8521C74.0213 19.5634 73.7986 20.5978 74.8175 21.2749C76.1572 22.1653 76.6059 22.1272 77.7635 21.025L78.8646 19.9764L83.9648 21.8846C91.8489 24.8342 93.2255 25.4348 93.3259 25.9686C93.4618 26.6899 92.3535 35.6453 91.5181 40.5751C90.6513 45.6905 90.611 45.5762 93.724 46.8298C98.4506 48.7333 98.9454 52.2208 94.4891 52.2208C93.7615 52.2208 92.274 51.7278 90.2901 50.8292L87.2177 49.4376L87.2922 42.2597C87.3806 33.731 87.1988 33.2276 83.644 32.1565C82.1239 31.6983 77.6306 29.8819 77.0512 29.4911C74.7794 27.9591 71.8599 33.6343 70.0167 43.1656C68.7688 49.6192 68.7621 49.6072 75.818 53.3863C84.4163 57.9915 86.3573 59.5273 84.8027 60.495C84.3699 60.7645 82.4564 62.3475 80.5507 64.0127C78.6453 65.678 76.6223 67.3424 76.0554 67.7115C74.6451 68.6303 74.4061 69.702 75.4313 70.5112C78.7726 73.1477 80.5829 77.3152 78.1157 76.69C74.8497 75.8624 66.897 70.0401 67.9704 69.2625C73.5604 65.2128 77.9686 61.3678 78.4037 60.1622C78.8446 58.9396 76.2033 57.3212 68.6031 54.1568C66.0644 53.0998 62.499 51.46 60.6801 50.5131C41.7602 40.6619 40.8726 40.3873 40.1156 44.1523C39.9096 45.1766 37.2986 51.6481 36.9303 52.0477C36.0432 53.0098 25.8787 47.7606 25.8269 46.3139C25.8108 45.8592 28.1357 45.8006 31.241 46.1768C34.8658 46.6163 35.828 46.4118 35.828 45.2024C35.828 44.4708 37.124 37.1585 37.5049 35.7411C37.8677 34.3908 38.4534 34.321 40.596 35.3719C42.4249 36.2693 43.3118 36.2942 44.2989 35.4756L45.0607 34.8443L49.2265 36.2043C53.6567 37.651 54.3183 37.665 54.5683 36.3185C54.6347 35.9608 55.2049 33.3021 55.8354 30.4101C56.4656 27.5185 57.053 24.6025 57.1406 23.9301L57.2996 22.7073L55.8073 21.9405C54.394 21.2146 52.0215 20.5785 50.7327 20.5806C50.2968 20.5811 49.0413 22.0955 45.8752 26.44C43.5266 29.6622 41.5426 32.2986 41.4658 32.2986C40.3469 32.2986 34.994 27.9884 34.994 27.0872C34.994 26.3545 36.7412 26.2994 40.7364 26.9059L41.8917 27.0814L43.5481 23.4643C46.0009 18.1084 51.6092 10.654 52.8944 11.0413C53.2172 11.1386 54.4193 11.4251 55.566 11.678C58.3894 12.3005 59.9186 13.265 60.5519 14.8222C61.4054 16.9201 62.7907 17.5826 63.8471 16.3975L64.4687 15.7005L63.4923 13.7616C60.8324 8.47987 66.9423 3.68242 72.8267 6.43227ZM83.8525 7.12281C82.6779 7.77644 82.631 7.93904 83.2529 9.20644C84.1085 10.9499 88.1618 9.7751 87.7181 7.91208C87.3898 6.53305 85.5775 6.16303 83.8525 7.12281ZM136.325 7.30211C132.853 8.12097 130.175 9.74756 124.764 14.3247C120.91 17.5852 120.759 17.8275 120.192 21.666C119.106 29.0144 119.224 28.8565 115.987 27.2803C109.491 24.1173 104.918 26.2933 103.069 33.4272C102.113 37.1142 102.063 37.0477 107.432 39.1797C108.909 39.7665 111.39 40.9777 111.687 41.2578C111.744 41.3114 111.223 42.5149 110.53 43.9317C106.273 52.6307 107.526 60.1115 113.904 64.0863C115.519 65.0929 115.717 65.7205 115.562 69.3572C115.454 71.9005 115.54 71.8475 109.902 72.8529C107.606 73.2625 105.105 73.7963 104.346 74.0392C103.586 74.2818 102.826 74.4819 102.656 74.4836C102.084 74.4895 100.572 70.7069 100.097 68.0845C99.2982 63.6711 97.5768 63.2909 91.984 66.2927C86.6684 69.1453 85.3137 74.4189 89.6193 75.4973C91.2342 75.9019 91.5164 76.4498 91.9887 80.0991C92.7043 85.6298 92.2876 85.4775 103.521 84.3155C114.535 83.1762 113.748 83.0065 114.372 86.6576C114.952 90.0534 115.447 89.5474 109.637 91.4978C96.1098 96.0389 97.1709 94.8207 100.324 102.191C102.998 108.443 103.03 107.421 100.086 109.872C91.4755 117.039 98.291 119.881 111.444 114.608C116.578 112.55 116.941 112.148 115.921 109.65C114.855 107.037 114.632 102.331 115.574 102.309C115.826 102.302 121.16 102.058 127.429 101.766C137.759 101.284 142.552 101.313 143.071 101.86C143.279 102.079 140.382 107.056 137.805 110.908C134.93 115.203 134.803 114.907 140.634 117.498C153.594 123.255 161.968 118.636 152.62 110.886L151.957 110.336L155.358 103.535C158.776 96.7004 159.498 94.6431 158.675 94.0885C157.519 93.3104 150.119 91.286 145.916 90.5986C141.507 89.8773 141.302 89.7727 141.067 88.1201C140.844 86.5568 140.24 84.6867 138.866 81.319C137.751 78.5844 137.741 78.6151 140.108 77.7359C140.933 77.4298 143.155 76.4322 145.048 75.519C146.94 74.6058 148.584 73.9668 148.699 74.0995C149.126 74.5885 150.642 82.2126 150.642 83.8717C150.642 85.2311 150.772 85.7444 151.268 86.3444L151.893 87.1017L155.924 86.5199C160.482 85.8618 162.649 85.1728 164.726 83.7211C170.841 79.4478 168.405 73.6592 161.451 75.94C159.254 76.6607 159.758 77.8112 157.304 66.4834C156.362 62.1365 157.272 62.1752 145.782 65.9932C140.452 67.7643 136.06 69.2133 136.022 69.2133C135.809 69.2133 135.419 66.3032 135.543 65.6358C135.666 64.9766 135.934 64.766 137.12 64.3951C141.329 63.0796 146.13 58.1902 146.625 54.7158C146.878 52.9372 147.109 52.7262 149.797 51.8174C154.357 50.2749 161.093 46.2307 166.419 41.8379L168.434 40.1755V38.708C168.434 33.1412 158.953 33.4219 150.617 39.2357C148.71 40.5661 148.58 40.3501 148.389 35.5181L148.221 31.2732L149.362 30.0087C149.99 29.3129 151.691 27.8469 153.144 26.7503C160.94 20.8647 161.635 14.1343 154.447 14.1343C152.565 14.1343 152.269 13.9526 151.499 12.3266C150.705 10.6508 145.86 9.32363 143.511 10.139C143.013 10.3121 142.828 10.1627 142.399 9.2375C141.567 7.44186 139.085 6.65112 136.325 7.30211ZM107.534 8.44383C106.948 9.18828 107.665 11.3566 109.26 13.6614C110.028 14.7709 110.722 15.8596 110.803 16.0808C111.018 16.6711 112.211 16.9014 112.725 16.4517C113.743 15.5613 112.992 13.6409 110.246 10.1158C108.52 7.89948 108.145 7.66804 107.534 8.44383ZM203.391 10.5726C201.254 12.9802 201.046 13.6573 202.168 14.5588C204.272 16.2498 208.404 11.646 206.408 9.83604C205.323 8.85224 204.806 8.97851 203.391 10.5726ZM32.884 10.3649C32.4114 10.5002 31.6691 10.9587 31.2341 11.3835C30.799 11.8083 29.8721 12.3562 29.1741 12.6005C27.1872 13.2969 26.7288 14.1041 27.4802 15.5839C28.128 16.8592 30.8398 15.9223 33.4147 13.5337C35.4177 11.6759 35.0919 9.73174 32.884 10.3649ZM139.797 10.7613C140.679 11.8816 140.039 12.6023 133.231 18.1533C131.409 19.6384 129.497 21.3118 128.982 21.872L128.045 22.8904L128.37 24.63C128.923 27.5917 129.274 34.314 129.085 38.3046L128.904 42.1132L129.782 42.6532C132.493 44.3199 133.066 40.9129 132.312 27.611L132.104 23.9489L133.242 22.8491C133.867 22.2444 134.542 21.8143 134.741 21.8937C134.94 21.9731 135.037 21.925 134.956 21.787C134.821 21.5576 138.713 18.1416 143.081 14.6543C145.019 13.1071 146.185 12.8765 148.01 13.6799C149.668 14.4097 148.588 15.8558 142.934 20.4792C141.026 22.039 138.741 24.0719 137.855 24.9971L136.243 26.6794L136.647 28.6833C136.939 30.1344 137.033 32.3221 136.986 36.6124C136.908 43.7296 137.645 45.2733 140.117 43.1644L140.773 42.6046L140.794 35.0971L140.816 27.59L142.045 26.264C142.722 25.5347 144.576 23.8586 146.166 22.5391C147.756 21.2198 149.615 19.6595 150.296 19.0717C152.696 17.0022 155.924 16.5891 155.924 18.3513C155.924 19.883 154.429 21.4308 146.413 28.197L144.505 29.8084L144.648 31.5662C144.727 32.533 144.873 35.6312 144.973 38.4511C145.244 46.0901 145.642 46.2181 153.35 41.1382C158.009 38.0679 162.751 36.9015 165.196 38.2252C167.024 39.2146 153.203 47.8221 146.046 50.1516C143.84 50.8696 143.703 51.0249 143.694 52.8068C143.675 56.3969 138.788 61.1504 133.732 62.496C132 62.9569 131.619 63.5085 131.849 65.2174C131.938 65.8843 132.124 67.6556 132.261 69.1538C132.628 73.1773 133.554 73.8086 137.02 72.4006C140.596 70.9477 153.393 66.5766 154.069 66.5766C154.524 66.5766 156.758 76.4419 156.758 78.4508C156.758 80.1949 158.523 80.5707 160.941 79.3414C164.344 77.6114 166.049 78.0702 164.055 80.1802C162.167 82.1792 158.435 83.569 154.958 83.569H153.763L153.575 82.1774C153.278 79.9892 152.036 71.7874 151.871 70.9263C151.522 69.109 149.339 69.1574 146.472 71.0456C145.478 71.7001 142.351 73.2505 139.522 74.491C133.152 77.2839 133.337 76.9886 135.206 81.4013C137.085 85.8375 137.594 87.4925 137.773 89.7467C137.97 92.2188 137.89 92.174 144.099 93.2735C151.542 94.5922 155.18 95.7474 154.949 96.7192C154.505 98.5898 151.347 105.175 149.363 108.369C147.432 111.477 147.467 111.67 150.274 113.324C156.623 117.066 152.04 119.188 144.943 115.793C144.026 115.354 142.681 114.71 141.954 114.363C140.329 113.585 140.114 114.346 143.633 108.407C148.377 100.401 148.426 100.277 147.346 99.1391C146.632 98.3859 139.462 98.0947 131.46 98.494C111.138 99.5083 112.059 99.4321 111.417 100.152L110.829 100.813L111.71 105.302C112.195 107.77 112.644 109.988 112.709 110.231C113.027 111.413 101.051 115.488 100.125 114.512C99.8069 114.177 103.19 111.061 104.57 110.418C106.676 109.437 106.883 108.5 105.59 105.803C104.625 103.789 102.27 97.9819 102.27 97.616C102.27 97.0616 107.992 94.9388 113.617 93.4059C118.498 92.0761 118.91 91.5438 117.978 87.7726C117.748 86.8433 117.56 85.0652 117.56 83.8216C117.56 81.6401 116.74 79.9523 115.929 80.4656C115.832 80.5268 113.689 80.7301 111.166 80.9176C108.643 81.1048 104.452 81.4479 101.853 81.6796C99.2537 81.9114 96.9182 82.1015 96.6627 82.1024C96.1365 82.1045 95.5688 80.523 94.9261 77.2634C94.1677 73.4193 93.9114 73.0337 92.1066 73.0264C88.8393 73.0135 89.6569 70.0635 93.3292 68.6154C96.2713 67.4555 96.2279 67.4429 96.7628 69.5951C98.6805 77.3085 100.362 79.1325 104.009 77.457C104.737 77.123 106.363 76.6519 107.623 76.4105C108.884 76.1688 111.291 75.705 112.973 75.3795C114.655 75.054 116.399 74.786 116.85 74.7836C117.354 74.7813 117.966 74.4801 118.442 73.9987L119.216 73.2177L119.046 68.2125C118.854 62.5602 118.77 62.3211 116.869 62.0208C110.514 61.0165 109.296 52.3413 114.272 43.5142C116.444 39.6605 116.465 39.3036 114.558 38.5759C113.839 38.3014 112.5 37.7075 111.583 37.256C110.666 36.8046 109.331 36.2825 108.618 36.0962C106.043 35.4232 105.702 34.3492 107.181 31.5612C109.083 27.9758 113.391 28.5049 119.089 33.0237C123.49 36.5136 123.446 36.1395 120.301 43.3736C117.295 50.2849 117.246 51.6349 119.999 51.6349C121.029 51.6349 122.455 52.2452 123.291 53.0438C126.105 55.7327 127.771 56.1666 128.416 54.3783C128.976 52.8261 127.568 50.9265 124.739 49.4168C123.719 48.8724 122.818 48.3146 122.737 48.1772C122.517 47.8013 122.869 46.6373 123.148 46.8193C123.282 46.9066 123.326 46.7967 123.245 46.5755C123.165 46.3543 123.983 44.0202 125.063 41.3884C127.558 35.3101 127.616 35.6271 123.293 31.8044C122.551 31.1475 122.285 30.7131 122.396 30.3395C122.484 30.0474 122.802 28.0804 123.104 25.9686C124.07 19.2209 124.913 17.7994 130.23 13.95C134.901 10.5691 138.659 9.31631 139.797 10.7613ZM84.8527 11.8426C83.4349 13.4839 87.799 15.397 90.0564 14.124C91.0755 13.5492 90.4847 11.5795 89.2538 11.4474C87.1485 11.2218 85.2411 11.3932 84.8527 11.8426ZM-24.1644 12.142C-25.8986 13.9696 -18.099 20.5398 -14.5609 20.2313C-12.6727 20.0667 -12.882 17.4003 -14.8314 16.7868C-17.8671 15.8309 -19.0642 15.1752 -20.8012 13.5161C-22.5962 11.8019 -23.4936 11.4351 -24.1644 12.142ZM102.818 12.2402C102.356 12.8264 102.405 14.0127 102.947 15.37C103.186 15.9692 103.397 17.0239 103.415 17.7138C103.488 20.5135 104.036 21.424 105.424 21.0566C106.388 20.8018 106.44 18.683 105.566 15.1948C104.816 12.1986 103.752 11.0545 102.818 12.2402ZM98.6271 12.8528C98.3608 13.1906 98.2501 14.3118 98.2454 16.7104L98.239 20.0916L99.1077 20.4681C100.131 20.9113 100.919 20.5038 100.884 19.5487C100.872 19.2294 100.869 17.7457 100.877 16.2513C100.897 12.6694 99.9262 11.2031 98.6271 12.8528ZM207.059 15.1872C204.585 17.3886 204.674 17.25 205.285 17.9608C206.493 19.3682 208.355 18.9528 210.163 16.8715C212.533 14.143 209.862 12.6931 207.059 15.1872ZM34.145 16.1262C33.4653 16.5774 32.1854 17.2536 31.301 17.6291C29.1518 18.542 28.5714 19.769 29.6425 21.1352C30.8095 22.6235 37.218 18.8734 37.218 16.7025C37.218 15.1274 35.9956 14.8983 34.145 16.1262ZM-5.16949 16.5712C-6.22812 18.274 -9.764 28.0441 -9.764 29.2664C-9.764 29.8253 -10.4615 29.7632 -13.4228 28.9403C-20.2571 27.0412 -27 27.5334 -27 29.932V30.9882L-23.0146 30.8798C-18.747 30.7634 -16.9775 31.0213 -12.0778 32.4738C-8.56387 33.5153 -8.23556 33.3384 -7.40851 29.9548C-6.4483 26.0255 -5.61012 23.5381 -4.4353 21.1308L-3.34609 18.8986L-1.62055 19.2724C-0.671453 19.4778 2.4819 20.0708 5.387 20.5896C10.4091 21.487 14.0995 22.4527 17.473 23.752C19.23 24.4288 19.982 24.2123 19.982 23.0304C19.982 22.2933 21.5633 20.2867 22.1443 20.2867C23.172 20.2867 23.6007 24.7015 22.8054 27.0983C22.3508 28.4683 22.6038 28.4867 17.4692 26.7081C3.47019 21.8591 0.172552 22.1612 0.0293827 28.3063C-0.0198231 30.4215 -0.0857067 32.8966 -0.116564 33.8063C-0.20886 36.5095 0.834749 37.2757 2.99425 36.0894C3.7126 35.6948 4.48267 35.5169 5.21575 35.5767L6.33776 35.6678L5.33112 38.0116C4.77762 39.3007 4.03203 40.8473 3.67424 41.4482C2.29064 43.7732 3.20303 44.4822 7.20484 44.1919C10.5008 43.9525 10.4772 43.8907 8.04329 46.3658C4.79792 49.6658 4.92774 50.6315 8.93317 52.982C20.5402 59.7939 22.0197 61.0312 20.7465 62.8628C20.2925 63.5156 9.5734 58.3774 2.91475 54.315C0.229267 52.6767 -0.153818 52.5762 -1.08401 53.263C-2.11594 54.0244 -1.92079 55.5265 -0.569151 57.2278C0.0541248 58.0121 1.7402 60.3377 3.17773 62.3955C4.61527 64.4534 5.98776 66.4008 6.22739 66.723C6.46703 67.0453 7.48784 68.5884 8.49559 70.1523L10.3284 72.9959L8.87284 74.7666C7.02803 77.0105 7.51676 77.2786 3.68564 71.9233C1.87002 69.3856 0.233994 67.1112 0.0499573 66.8695C-1.34449 65.0393 -4.755 60.3933 -5.27319 59.6184C-7.51359 56.2683 -11.4237 62.2467 -13.3691 71.9966C-13.6905 73.6079 -14.262 76.3223 -14.6387 78.0289C-15.7502 83.061 -15.7232 83.1105 -11.154 84.448C-3.47036 86.6971 -1.86269 87.7996 -2.27329 90.5368C-2.86071 94.4539 -4.70357 94.6302 -6.37768 90.9294L-7.123 89.282L-9.38203 89.2413C-13.3577 89.1698 -19.3561 87.6756 -19.3542 86.7575C-19.3403 80.4808 -18.0826 70.0512 -16.8497 65.9906C-14.046 56.7567 -13.9676 56.9084 -21.5315 56.9084H-27V59.0861V61.2635L-22.4261 61.3566C-16.9767 61.4674 -17.0295 61.4375 -17.7735 63.9773C-19.0534 68.3488 -19.961 74.6289 -20.2029 80.7858C-20.2852 82.8805 -20.4876 85.3445 -20.6527 86.2612C-21.1567 89.0611 -21.0127 89.2712 -17.893 90.2843C-14.5673 91.3642 -12.1034 91.956 -9.86464 92.2126C-8.16356 92.4075 -8.1541 92.4136 -6.94563 94.1729C-3.57516 99.0779 -0.670343 98.1738 0.786932 91.7664C2.19889 85.5592 1.45274 84.755 -8.73623 81.5027C-11.1457 80.7336 -11.1037 80.985 -9.76122 75.3368C-7.81077 67.1317 -6.80664 64.2328 -5.91537 64.2328C-5.62013 64.2328 1.96121 74.7707 4.23135 78.3365C6.51735 81.9272 7.63352 82.6002 8.45862 80.8854C8.71772 80.3472 9.84445 78.909 10.9628 77.6893C14.0956 74.2727 13.9981 73.7251 8.74663 65.2529C6.09868 60.9813 6.11925 61.071 7.94043 61.7214C9.19616 62.1696 10.1161 62.6601 16.09 66.0656C21.6105 69.2127 22.8835 68.3403 23.1228 61.2471C23.2071 58.7492 21.471 57.0742 14.2647 52.701C9.99096 50.1073 10.0513 50.2608 12.2872 47.6768C16.2793 43.0639 15.8301 41.3808 10.607 41.3808C7.29436 41.3808 7.3519 41.469 8.87451 38.7215C11.6145 33.7773 10.9359 32.1407 6.62827 33.3038C5.69141 33.5567 4.55995 33.7635 4.11348 33.7635H3.302L3.30367 31.7859C3.30561 29.1184 3.71705 27.611 4.44319 27.611C7.54233 27.611 14.8871 29.6531 19.565 31.8152C24.0414 33.8842 24.7049 33.2209 24.7895 26.593C24.8884 18.7993 22.2054 16.0676 18.0399 19.7207L16.4083 21.1516L15.2068 20.5917C13.2194 19.6656 10.1186 18.8895 4.59942 17.9365C1.7199 17.4393 -1.4076 16.7778 -2.35057 16.466C-4.52759 15.7468 -4.65992 15.7518 -5.16949 16.5712ZM228.277 17.9505C225.526 19.3993 224.758 20.8645 226.147 22.0155L226.87 22.615L227.761 21.8995C229.074 20.8436 230.525 20.2867 231.963 20.2867H233.237L233.153 18.7486L233.069 17.2105L231.539 17.1246C230.281 17.0543 229.699 17.2017 228.277 17.9505ZM249.271 20.8146C248.397 22.5385 247.379 24.4671 247.01 25.1003L246.339 26.2519L246.859 27.8463C247.145 28.7232 247.32 29.721 247.247 30.0641C247.174 30.4069 246.799 34.2469 246.412 38.5976C245.702 46.5767 245.224 50.1466 244.469 53.0998C243.78 55.7934 243.733 55.7005 247.456 58.9748L250.861 61.9701L250.948 60.5448C251.035 59.123 251.031 59.1148 249.11 57.2084C246.31 54.4284 246.445 54.852 247.088 50.8582C248.262 43.5614 248.569 40.0785 248.633 33.324L248.698 26.5856L249.86 24.1504C250.937 21.8954 251.018 21.5655 250.942 19.6975L250.861 17.6801L249.271 20.8146ZM212.219 18.2936C209.594 19.8657 208.948 21.0054 210.064 22.0955C211.026 23.0351 212.13 22.8007 213.593 21.3467C215.402 19.5484 214.281 17.0584 212.219 18.2936ZM162.495 20.6529C162.279 21.0153 161.882 22.0372 161.612 22.9235C161.268 24.0543 160.719 24.9646 159.774 25.9763C157.808 28.0783 157.931 29.3689 160.095 29.3689C161.86 29.3689 165.697 22.3548 164.992 20.4177C164.734 19.7081 162.957 19.8757 162.495 20.6529ZM167.103 21.3517C166.806 21.9745 166.416 22.9642 166.236 23.551C166.056 24.1381 165.288 25.3654 164.53 26.2783C162.635 28.5603 162.805 29.9548 164.976 29.9548C166.727 29.9548 171.296 22.012 170.205 20.8645C169.333 19.9469 167.648 20.2117 167.103 21.3517ZM173.476 23.263C172.36 26.4424 182.351 29.5139 185.144 26.8502C186.342 25.7073 185.447 24.0646 183.757 24.3037C182.025 24.5483 176.833 23.837 175.707 23.2009C174.398 22.4614 173.751 22.4796 173.476 23.263ZM53.3312 24.0822C53.9906 24.5216 51.4797 33.4735 50.701 33.4597C46.4601 33.3847 46.2149 32.2318 49.4847 27.7379C52.3554 23.7924 52.5786 23.5803 53.3312 24.0822ZM61.7829 28.1062C61.6798 28.5395 61.7521 29.4292 61.9436 30.0837C62.6909 32.6358 62.6005 32.8644 60.3006 34.2317C57.9393 35.6359 57.872 35.7367 58.4753 36.9663C59.0379 38.113 60.044 38.1558 61.9911 37.116C63.65 36.23 63.9752 36.3882 64.4325 38.3025C64.7144 39.4823 64.8462 39.6306 65.8742 39.9224C68.0643 40.5438 68.6448 39.5688 67.5103 37.1749C66.6479 35.3552 66.8256 34.9298 68.8861 33.8827C71.829 32.3871 72.3786 31.2158 70.5891 30.2537C69.1616 29.4864 69.0042 29.501 67.52 30.5408C65.7797 31.7601 64.74 31.0922 64.74 28.7548C64.74 27.4476 62.0787 26.8637 61.7829 28.1062ZM186.115 33.2092C185.88 36.489 186.266 37.4611 187.685 37.1623C189.813 36.7134 190.383 32.0338 188.438 30.9738C186.605 29.9748 186.327 30.242 186.115 33.2092ZM170.431 31.7218L169.508 32.3144L170.781 33.8069C172.266 35.5477 172.461 36.1665 172.216 38.3629C171.943 40.8174 174.341 42.1516 175.139 39.9892C176.598 36.0396 173.145 29.9774 170.431 31.7218ZM179.509 31.8469C178.86 33.3466 180.908 36.9862 182.401 36.9862C184.379 36.9862 184.744 35.976 183.484 33.9917C183.045 33.3024 182.479 32.3757 182.226 31.9324C181.592 30.8241 179.973 30.7731 179.509 31.8469ZM191.975 35.0086C190.582 37.8774 190.72 39.623 192.339 39.623C194.302 39.623 196.548 34.4385 195.06 33.3407C193.73 32.3587 193.095 32.7018 191.975 35.0086ZM27.6998 34.5015C26.0288 35.7332 24.49 36.0806 22.0678 35.7733C19.9036 35.4988 19.426 35.7226 19.426 37.0105C19.426 39.867 26.5295 39.8872 29.5294 37.0395C31.7603 34.9216 30.1537 32.693 27.6998 34.5015ZM204.96 38.1522C203.931 38.5905 204.009 39.2078 205.358 41.2815C206.726 43.3839 207.903 43.9956 208.901 43.1228C210.651 41.592 207.176 37.2086 204.96 38.1522ZM-24.0615 39.8931C-24.3276 40.2031 -24.615 41.0055 -24.7004 41.6764C-24.8697 43.0074 -25.3868 43.4267 -26.1991 42.892C-26.9864 42.3737 -27 42.4045 -27 44.716C-27 49.1593 -23.0012 50.5178 -22.1364 46.3684C-21.8701 45.0907 -21.7041 45.2287 -20.467 47.7539C-18.5763 51.6126 -16.818 51.0405 -15.6187 46.1756C-15.0252 43.7686 -14.5273 43.9771 -12.2682 47.5787C-10.4765 50.4349 -7.818 50.2064 -7.818 47.1961C-7.818 46.4721 -7.61534 45.2525 -7.36736 44.486C-6.59174 42.0875 -7.28368 39.33 -8.66117 39.33C-9.34783 39.33 -9.64112 39.8231 -10.1899 41.9014C-10.8424 44.3721 -10.8524 44.3712 -13.008 41.6574C-15.5559 38.4499 -16.4104 38.5252 -18.0528 42.1018L-18.854 43.8465L-20.164 41.9545C-22.0939 39.1668 -23.0179 38.6781 -24.0615 39.8931ZM200.056 40.0835C199.057 40.6548 199.073 41.4886 200.117 43.223C201.083 44.8288 201.918 46.7349 202.196 47.9727C202.629 49.899 204.055 50.4507 205.276 49.164C206.207 48.1831 205.533 46.1753 202.736 41.6005C201.454 39.5034 201.262 39.3945 200.056 40.0835ZM101.575 40.9504C101.422 40.9979 100.953 41.1166 100.533 41.2144C99.3721 41.4839 99.5717 42.2987 101.297 44.3363C102.138 45.3298 102.826 46.3139 102.826 46.5234C102.826 47.4117 104.986 47.1741 105.317 46.2495C105.714 45.1356 102.547 40.6498 101.575 40.9504ZM180.68 43.0106C180.152 43.2538 179.151 43.5904 178.456 43.7589C174.541 44.7061 174.212 45.1672 174.694 49.0356C175.279 53.7349 175.94 60.6535 175.94 62.0733V63.3538L174.897 63.3535C174.324 63.3535 171.853 62.6296 169.407 61.7445C163.596 59.6427 163.726 59.6357 162.66 62.1087C160.09 68.0748 161.123 69.736 168.194 71.0016C170.083 71.3397 171.942 71.7848 172.325 71.991C172.708 72.197 173.419 72.4557 173.905 72.5661C175.169 72.8526 175.284 73.1137 175.657 76.5377C176.284 82.2797 176.562 81.9193 168.614 85.674C161.388 89.0884 161.456 89.0011 162.554 93.4091C164.439 100.984 165.078 101.239 172.719 97.4853C178.652 94.5702 178.292 94.642 178.687 96.2967C179.426 99.3876 179.179 99.8968 176.635 100.53C165.831 103.222 163.164 105.774 165.347 111.327C165.819 112.529 167.069 112.676 174.547 112.406C179.868 112.215 180.39 112.239 180.555 112.691C180.801 113.368 180.95 113.298 176.765 114.48C167.201 117.181 167.731 116.75 167.959 121.639C168.334 129.715 168.709 129.909 177.218 126.447C186.332 122.739 189.665 121.093 193.576 118.366L195.227 117.215L196.912 117.526C203.06 118.661 204.022 117.48 202.638 110.494C201.936 106.947 201.664 106.686 198.725 106.742C195.599 106.802 195.854 107.395 194.568 97.0593C194.1 93.3007 193.609 89.7156 193.476 89.0928C193.19 87.7539 193.146 87.7925 195.584 87.252C201.91 85.8495 203.171 82.1004 198.305 79.1656C196.498 78.0767 196.537 78.2671 197.92 77.2572C201.323 74.7716 201.118 71.3321 197.485 69.9657C194.035 68.6681 194.264 69.08 195.266 65.9745C196.426 62.3794 198.11 54.9027 198.475 51.7231C198.985 47.2872 198.654 46.9543 193.713 46.9286C192.424 46.9221 190.87 46.8905 190.261 46.8588C189.155 46.8008 189.152 46.8029 188.93 48.1192C188.225 52.2794 187.815 54.0651 187.146 55.8877L186.401 57.9212L186.071 57.0485C185.89 56.5686 185.273 53.737 184.701 50.756C183.234 43.1143 182.698 42.0801 180.68 43.0106ZM235.154 44.3293C230.78 46.8673 229.397 50.2069 231.538 53.0614C233.999 56.343 238.499 55.721 240.396 51.8368C242.891 46.7279 239.468 41.8261 235.154 44.3293ZM181.463 48.9249C181.774 50.335 182.347 53.3198 182.736 55.5581C184.452 65.4252 185.228 67.1259 187.196 65.3314C187.991 64.6063 190.384 56.4652 191.028 52.2941L191.355 50.17H193.656C196.407 50.17 196.286 49.7367 195.096 55.3454C194.118 59.9571 192.651 64.9696 191.475 67.7156C190.559 69.8555 190.509 70.3703 191.096 71.5674C191.537 72.4656 191.814 72.5805 194.229 72.8693C197.718 73.2865 197.737 73.8531 194.319 75.548C189.529 77.9225 189.445 80.6334 194.133 81.4939C198.447 82.2855 198.17 84.155 193.739 84.155C190.92 84.155 189.898 85.6242 190.541 88.755C191.418 93.0344 191.514 93.6602 192.344 100.552C193.537 110.46 193.763 111.095 195.95 110.689C200.088 109.919 200.404 110.077 200.404 112.922C200.404 114.896 200.568 114.832 196.869 114.308C194.09 113.913 193.231 114.143 191.073 115.857C187.198 118.935 173.883 125.171 171.188 125.171C171.049 125.171 170.936 123.989 170.936 122.545C170.936 119.385 170.656 119.626 175.539 118.582C184.01 116.77 184.426 116.382 183.166 111.46C182.375 108.37 182.01 108.219 176.964 108.887C175.101 109.134 172.399 109.357 170.959 109.384L168.341 109.434L168.296 108.586C168.202 106.839 169.041 106.263 173.16 105.248C174.613 104.89 176.552 104.409 177.469 104.178C178.386 103.948 179.812 103.434 180.637 103.036L182.136 102.313L181.978 100.326C181.731 97.2237 180.421 91.4163 179.821 90.7671C179.307 90.2099 179.216 90.2441 173.519 93.1607C165.595 97.2175 165.993 97.221 165.5 93.0907L165.325 91.6258L167.088 90.5541C168.058 89.9649 170.102 88.9272 171.631 88.2484C179.312 84.8385 180.221 83.9912 179.103 81.2891C178.8 80.5561 178.591 78.858 178.465 76.0982C178.215 70.6149 178.112 70.4192 174.909 69.3627C171.601 68.2711 166.302 66.8695 165.485 66.8695C165.023 66.8695 164.82 66.704 164.82 66.3272C164.82 65.39 165.428 63.8982 165.757 64.0306C170.4 65.9004 178.185 67.7526 178.872 67.1511C179.438 66.6562 179.397 66.0261 178.179 56.469C176.916 46.5559 176.87 46.751 180.573 46.3927C180.76 46.3745 181.137 47.448 181.463 48.9249ZM237.201 47.2617C238.608 48.4274 237.928 51.7298 236.226 52.0008C233.306 52.4661 232.399 49.6409 234.798 47.5561C236.026 46.4894 236.239 46.4633 237.201 47.2617ZM165.297 47.2626C164.863 47.5347 164.824 47.8456 164.986 49.7291C165.126 51.3604 165.052 52.348 164.681 53.7918C163.859 56.9934 165.497 58.2866 167.368 55.9132C169.76 52.8789 168.008 45.5616 165.297 47.2626ZM44.8919 52.8147C40.698 54.1545 40.7186 58.8218 44.9342 62.3284C45.9903 63.2071 46.3092 63.6471 46.2077 64.0863C45.9191 65.3341 43.8369 69.6367 41.646 73.5115C36.6253 82.3924 36.63 82.1777 41.388 85.3269C45.4357 88.0058 45.3523 87.8799 44.0562 89.3682C43.5361 89.9652 42.3482 91.5414 41.4164 92.8709C39.3391 95.8347 38.1596 95.0293 32.4033 86.7185C30.0701 83.3499 25.2951 86.224 22.1229 92.9064C18.8614 99.7769 22.5735 105.008 27.6301 100.668C29.5035 99.0591 28.8944 98.562 33.6029 105.54C37.5174 111.342 38.2591 112.132 39.2177 111.517C39.4175 111.388 41.4575 109.752 43.751 107.881C48.894 103.684 48.7033 103.766 49.6282 105.331C50.0305 106.011 51.3271 108.018 52.5099 109.79C55.8993 114.87 56.1062 115.68 54.854 118.978L54.3809 120.224L52.1241 120.051C50.8825 119.955 48.4006 119.731 46.608 119.552C42.9087 119.183 42.6699 119.265 42.3988 121.002C42.3048 121.603 41.8445 123.15 41.3755 124.439C40.8189 125.969 40.4667 127.567 40.3605 129.041L40.1982 131.3L41.1603 132.314C42.9565 134.207 45.3962 134.106 47.4809 132.051L48.7845 130.766L50.7013 131.052C51.7557 131.209 53.3128 131.524 54.1615 131.751C61.4916 133.714 61.2984 133.961 66.0057 116.631L66.7738 113.803L68.3671 113.473C71.5207 112.819 75.7077 109.043 76.401 106.227C77.6887 100.999 77.521 101.133 83.4925 100.551C85.1813 100.386 87.551 100.156 88.7584 100.04C91.8405 99.7438 92.2267 99.2112 91.5934 96.132C91.3488 94.9426 90.899 92.0579 90.5937 89.7215C90.2885 87.385 89.7647 84.4989 89.4303 83.308L88.8217 81.1426L87.2752 80.3876C81.6983 77.6647 75.7093 81.1669 77.6356 86.025C78.0467 87.0624 79.3981 88.2566 80.1607 88.2566C81.1445 88.2566 81.7275 88.8229 81.4025 89.4628C81.1565 89.9477 80.9099 90.0297 80.0786 89.9043C79.5168 89.8193 78.1068 89.6682 76.9456 89.5685L74.8345 89.3869L72.539 86.3373C66.5514 78.3822 62.8991 76.138 55.9001 76.1131C52.2511 76.1003 51.6659 76.0358 51.7785 75.6587C52.0496 74.7502 56.1501 65.1647 57.2301 62.9144C58.7085 59.8338 58.726 59.9023 55.9135 57.7674C49.7608 53.0974 47.3703 52.0231 44.8919 52.8147ZM157.071 52.909C156.899 53.1264 156.637 53.9869 156.486 54.8213C156.336 55.6557 156.073 56.6149 155.901 56.953C155.523 57.6977 156.328 59.0509 157.236 59.1942C158.268 59.3574 159.809 56.7092 159.814 54.7618C159.818 53.4903 157.726 52.0773 157.071 52.909ZM151.933 54.4914C151.198 56.0037 151.086 58.1761 151.713 58.7738C153.001 60.0022 154.533 58.4014 154.533 55.8265C154.534 53.8325 152.708 52.8953 151.933 54.4914ZM49.033 57.1856C50.3574 57.8219 53.404 59.9902 54.8143 61.3004C55.1276 61.591 54.2625 63.7775 51.0454 70.8247C47.0906 79.4879 47.2001 82.6022 51.3807 80.3545C57.3263 77.1579 64.373 80.5183 71.7125 90.0496L73.8829 92.868L77.5819 93.2257C83.8956 93.836 83.7002 93.8553 84.2981 92.5651C84.7288 91.6364 84.7591 91.3158 84.4836 90.6145C84.2737 90.0807 84.2228 89.1918 84.3437 88.1725C84.6123 85.9061 84.3081 85.4508 82.3855 85.2416C79.0973 84.8842 79.2319 82.3971 82.5392 82.3971C86.5394 82.3971 87.6895 84.4585 88.5054 93.0907C88.5966 94.0575 88.7306 95.2558 88.8028 95.7538L88.9346 96.6591L84.6907 97.0124C82.3566 97.2069 79.5327 97.5342 78.4151 97.7396L76.3835 98.1134L75.8255 97.2878C73.8476 94.3604 70.1087 94.2687 66.3941 97.0564C64.0119 98.8441 66.4219 100.636 69.5324 99.3899C76.0285 96.7877 76.4166 105.934 69.9617 109.504C68.1766 110.492 67.4049 110.423 64.9463 109.058C62.0723 107.462 60.8422 107.546 60.8522 109.336C60.858 110.325 61.049 110.585 62.4412 111.504C64.3472 112.762 64.1406 114.521 60.9489 124.219C59.0933 129.856 59.8772 129.471 53.342 127.955C47.5413 126.608 47.7592 126.59 46.3981 128.532C43.6565 132.443 41.5715 130.888 43.3212 126.237C43.8147 124.926 44.3295 123.556 44.4652 123.194C44.7676 122.387 45.3523 122.368 51.257 122.976C53.5505 123.213 55.5604 123.408 55.7234 123.41C56.2863 123.417 57.2351 121.129 57.6691 118.717C57.9087 117.386 58.2962 115.793 58.5306 115.176C59.0263 113.87 59.1653 114.18 55.4542 108.325C54.2288 106.392 52.6492 103.755 51.9445 102.466C50.2971 99.4529 49.6118 99.2578 47.5799 101.222C46.8501 101.928 44.7518 103.604 42.917 104.947C41.0822 106.289 39.4431 107.5 39.2744 107.637C38.99 107.868 35.5114 103.202 31.5415 97.2656C29.7248 94.5485 29.1035 94.5391 26.6957 97.1923C24.902 99.169 24.1909 99.4731 23.1807 98.6947C21.7954 97.6274 25.6082 91.8945 29.3751 89.3808L30.1857 88.8399L34.3274 94.2456C39.5462 101.058 39.0003 100.938 42.4591 96.0204C43.3657 94.7313 45.3181 92.1933 46.7973 90.3801C49.8259 86.6687 49.9081 86.3113 47.9702 85.2923C45.0648 83.7644 41.388 81.3688 41.388 81.0035C41.388 80.2426 43.2876 76.2702 46.3522 70.6222C50.8442 62.3446 50.8875 61.9684 47.5596 60.1437C46.3475 59.4793 45.0573 58.6001 44.6923 58.1905L44.029 57.4451L44.7996 56.7458C45.7245 55.9065 46.5496 55.992 49.033 57.1856ZM99.274 58.2435C98.4214 58.8728 98.4672 59.0389 100.047 61.0391C101.7 63.1332 102.182 64.0456 102.969 66.5766C103.826 69.3299 106.07 70.1359 106.607 67.8829C107.382 64.6292 101.355 56.7071 99.274 58.2435ZM62.933 58.8552C61.1338 59.4421 60.848 59.7145 60.848 60.8434C60.848 62.4339 61.3351 62.8362 62.655 62.3361C63.2666 62.1043 64.0917 61.9089 64.4884 61.9019C65.3202 61.8869 66.0088 61.1923 66.2651 60.1095C66.597 58.707 65.107 58.1462 62.933 58.8552ZM34.4944 60.4991C33.3936 61.8966 34.5937 63.9937 37.5149 65.7764C39.3519 66.8977 39.9118 66.8968 40.5907 65.7706L41.165 64.8181L40.2104 63.8663C37.2255 60.8902 35.1494 59.6671 34.4944 60.4991ZM30.7545 62.7875C29.1343 63.7951 30.6363 66.9964 33.9696 69.6405C36.2906 71.4815 36.6687 71.5735 37.4757 70.4921C38.3867 69.2719 38.1941 68.8119 36.0031 66.975C34.8764 66.0304 33.5256 64.6649 33.0016 63.9407C31.986 62.5373 31.5315 62.3041 30.7545 62.7875ZM122.981 64.5779C122.675 64.7578 122.386 64.9374 122.339 64.9766C122.08 65.1931 123.183 67.1206 123.923 67.7452C125.114 68.7492 125.032 69.0715 123.12 70.8944C120.781 73.1248 120.912 74.1115 123.845 76.3815C125.93 77.9946 125.903 77.8979 124.616 79.1902C122.416 81.399 122.571 82.8058 125.209 84.5845C126.893 85.72 127.033 86.0224 126.109 86.5251C123.367 88.0149 123.597 89.9506 126.714 91.6153C127.478 92.0234 128.515 92.735 129.017 93.197C130.161 94.2482 130.887 94.4826 131.599 94.03C132.649 93.3628 132.195 91.8485 130.466 90.2485C129.284 89.1546 129.285 89.0394 130.488 88.2563C132.383 87.0214 131.957 84.9905 129.415 83.1454C127.619 81.8419 127.521 81.5088 128.68 80.6393C130.216 79.4864 129.912 77.9642 127.707 75.7736C125.569 73.6498 125.627 73.9387 127.025 72.3754C128.94 70.2346 129.069 69.7899 128.234 68.214C127.841 67.4745 127.406 66.8695 127.267 66.8695C127.128 66.8695 126.544 66.4271 125.97 65.8863C124.295 64.3072 123.805 64.093 122.981 64.5779ZM223.081 66.7438C222.391 67.471 222.566 68.5826 223.603 70.0729C226.118 73.6835 230.264 76.4911 230.985 75.0716C231.618 73.8239 231.293 73.2174 228.71 70.8247C227.318 69.5356 225.801 67.9866 225.338 67.3822C224.433 66.1998 223.774 66.0135 223.081 66.7438ZM-26.4398 70.0878C-26.9494 70.6249 -27 71.0582 -27 74.8947V79.1108L-26.2355 79.303C-25.8149 79.4088 -25.2714 79.5573 -25.0273 79.6332C-24.647 79.7516 -24.5586 79.3127 -24.4099 76.5699C-24.307 74.6758 -24.0465 72.8696 -23.7719 72.1463C-23.0566 70.2628 -25.1057 68.6819 -26.4398 70.0878ZM22.9516 70.4986C22.4882 71.771 23.6766 73.0472 26.4049 74.2062C29.0626 75.3353 30.3075 74.7054 29.5469 72.6162C29.109 71.4138 23.2977 69.5479 22.9516 70.4986ZM215.275 72.2459C211.06 74.3143 211.065 79.2149 215.283 80.5072C217.488 81.1828 217.447 81.0963 219.001 88.2566C220.72 96.1783 220.722 96.2155 219.451 97.0429C215.158 99.8393 211.401 109.532 210.049 121.3C209.559 125.565 209.83 125.428 205.338 123.701C197.204 120.575 195.81 120.338 195.064 121.949C192.532 127.41 192.417 135.452 194.832 138.205C195.146 138.562 195.53 139.817 195.806 141.387C197.53 151.184 204.024 153.132 204.989 144.141C205.197 142.204 205.289 142.166 207.305 143.192C208.1 143.596 210.281 144.394 212.153 144.967C214.024 145.539 216.339 146.395 217.298 146.869C220.707 148.554 220.652 148.634 222.407 139.381L223.852 131.763L224.975 130.738C226.021 129.783 227.432 128.245 229.926 125.342L230.953 124.146L232.358 125.6C234.062 127.362 234.057 127.165 232.509 131.464C231.011 135.626 229.686 139.924 229.268 141.981C229.1 142.804 228.779 143.773 228.553 144.136C227.432 145.939 229.866 148.398 234.278 149.92L235.766 150.434L234.42 151.873C232.804 153.603 232.688 153.59 231.335 151.539C229.832 149.262 229.375 149.272 227.264 151.627L225.563 153.523L220.913 153.7C215.283 153.916 209.463 154.564 205.036 155.469C202.764 155.934 201.716 156.041 201.65 155.818C201.597 155.64 201.359 154.753 201.121 153.848C200.514 151.543 200.331 151.435 197.599 151.783C193.574 152.296 193.495 152.476 193.47 161.134L193.454 166.774H194.288C194.905 166.774 195.122 166.637 195.122 166.247C195.122 162.702 195.782 153.409 196.046 153.232C197.637 152.165 198.541 153.134 198.837 156.223C198.973 157.638 199.18 158.293 199.65 158.787L200.28 159.452L204.581 158.315C211.124 156.586 214.383 156.146 221.489 156.033C228.472 155.921 228.048 156.012 228.497 154.538C229.302 151.894 229.844 151.971 231.116 154.913C232.048 157.067 233.029 158.122 233.929 157.935C234.457 157.826 234.506 157.744 235.713 154.975C236.699 152.715 236.896 152.701 237.49 154.854C237.725 155.704 238.202 156.682 238.551 157.026L239.185 157.651L243.355 156.408C245.648 155.723 248.307 154.989 249.263 154.776L251 154.389V153.079C251 151.951 250.932 151.797 250.513 151.967C249.054 152.561 244.041 153.899 242.1 154.212C239.489 154.633 239.503 154.642 238.407 152.062L237.696 150.389L238.656 149.764C239.925 148.937 240.447 147.793 240.487 145.749C240.511 144.541 240.743 143.597 241.311 142.395C242.343 140.211 243.611 136.863 244.772 133.264C245.285 131.672 245.951 129.93 246.251 129.394C248.045 126.19 247.138 124.346 239.994 116.675L237.402 113.892L238.368 111.841C241.621 104.935 239.087 99.2569 231.891 97.3274C230.231 96.8823 229.888 96.2633 229.299 92.6533C229.129 91.6071 228.806 90.2898 228.583 89.7259C228.359 89.1622 227.681 86.722 227.076 84.3038C224.437 73.7582 220.464 69.6991 215.275 72.2459ZM205.22 72.6411C202.705 73.1521 203.973 81.8112 206.563 81.8112C208.228 81.8112 208.561 80.743 207.562 78.6078C207.077 77.5692 206.937 76.7627 206.937 74.9995C206.937 73.7509 206.853 72.729 206.751 72.729C206.649 72.729 206.399 72.6815 206.195 72.6235C205.992 72.5658 205.553 72.5737 205.22 72.6411ZM21.7056 74.5454C20.4852 75.8316 25.103 81.7113 27.1394 81.4646C28.3979 81.312 28.4085 79.1873 27.1569 77.9756C23.4106 74.3491 22.4598 73.7506 21.7056 74.5454ZM220.107 74.6143C222.615 75.981 224.78 81.8103 227.494 94.5075L228.173 97.6819L227.371 98.8485C226.206 100.543 225.04 104.413 225.282 105.778C225.828 108.861 227.924 108.11 228.327 104.686C228.863 100.133 232.298 99.0723 235.853 102.362C239.43 105.673 236.948 111.987 232.069 111.987C229.394 111.987 228.132 113.67 229.626 115.244C230.233 115.884 230.561 115.891 233.78 115.331C234.745 115.164 234.835 115.235 237.395 118.188C240.613 121.9 244.05 126.189 244.05 126.494C244.05 127.183 240.412 136.976 239.031 140.004C237.504 143.353 237.42 143.65 237.57 145.174C237.761 147.132 237.257 147.61 235.342 147.284C230.015 146.376 230.084 144.403 235.966 129.51C237.248 126.264 237.218 126.115 234.876 124.111C233.911 123.285 232.938 122.231 232.713 121.767C231.47 119.202 231.606 119.142 226.502 124.483C221.44 129.781 221.93 128.807 220.261 136.89C219.546 140.355 218.879 143.285 218.779 143.403C218.312 143.951 209.79 141.105 206.166 139.19C202.936 137.484 202.159 138.163 202.466 142.428C202.84 147.617 199.252 149.114 198.598 144.043C198.496 143.251 198.248 141.884 198.047 141.006L197.681 139.408L199.012 138.076C199.759 137.329 200.738 135.908 201.241 134.839C201.734 133.792 202.17 132.897 202.209 132.85C202.475 132.53 209.601 135.982 213.192 138.171C215.914 139.831 216.135 139.59 217.891 133.057C220.459 123.496 220.468 123.413 218.891 123.413C218.019 123.413 217.787 123.81 217.091 126.49C216.383 129.21 215.403 132.19 214.719 133.697L214.24 134.753L210.728 133.081C204.533 130.134 201.044 128.835 200.53 129.285C199.969 129.775 199.179 131.4 198.728 132.992C198.34 134.36 196.956 136.304 196.37 136.304C194.982 136.304 195.957 126.215 197.473 124.889C197.917 124.5 202.316 125.921 207.018 127.972C211.549 129.948 212.358 129.702 212.358 126.349C212.358 115.818 217.251 102.423 222.09 99.7048L223.796 98.7468L223.603 97.5301C222.998 93.6995 219.19 78.9799 218.648 78.374C218.471 78.1757 217.642 77.8765 216.806 77.7096C214.926 77.3337 214.397 76.8634 214.851 75.9702C215.649 74.3975 218.405 73.6867 220.107 74.6143ZM250.312 75.6441C249.744 76.8022 249.778 77.334 250.444 77.7096C250.969 78.0055 251 77.9322 251 76.4014C251 74.5466 250.903 74.44 250.312 75.6441ZM19.1714 78.4774C18.8444 78.9151 18.6153 79.3502 18.6621 79.4437C18.7085 79.5374 19.1638 80.4998 19.6737 81.583C20.9786 84.3551 22.3094 85.1707 22.8615 83.5368C23.6196 81.2932 20.3823 76.8547 19.1714 78.4774ZM15.9368 81.3624C15.0333 83.6414 16.6969 87.9636 18.4777 87.9636C19.3487 87.9636 19.3932 86.5905 18.592 84.448C18.2862 83.6303 18.036 82.5313 18.036 82.0054C18.036 80.1389 16.5968 79.698 15.9368 81.3624ZM209.161 85.5041C206.385 87.9165 204.24 89.0324 201.866 89.3005C198.25 89.7083 197.787 92.6512 201.338 92.6512C206.576 92.6512 213.476 87.7999 212.573 84.7521C212.102 83.1621 211.773 83.2347 209.161 85.5041ZM5.86599 87.2479C4.42429 88.312 5.41702 90.0417 7.1334 89.4569C7.9799 89.1686 8.41859 89.1868 9.557 89.5565C11.8641 90.306 12.2469 90.2113 12.1452 88.9158C11.997 87.027 7.7083 85.8879 5.86599 87.2479ZM54.6973 87.9238C51.4358 90.1038 50.8739 93.9535 53.2692 97.7118C56.7378 103.155 64.3188 100.869 63.8031 94.5362C63.3108 88.4907 58.7761 85.1977 54.6973 87.9238ZM96.988 88.2701C95.3825 88.5733 93.9169 88.8264 93.7312 88.832C93.1663 88.8496 92.756 90.0136 92.9434 91.0671C93.153 92.2434 93.9503 92.8173 94.7493 92.3667C95.0467 92.1989 96.2541 91.8672 97.4317 91.6296C100.241 91.0633 101.616 89.7062 100.87 88.2376C100.532 87.5705 100.698 87.569 96.988 88.2701ZM235.529 89.8943C234.483 91.5772 235.07 94.995 236.405 94.995C237.26 94.995 237.66 94.2186 237.64 92.5973C237.605 89.7487 236.5 88.3337 235.529 89.8943ZM59.2915 91.0088C61.1021 91.8063 61.63 93.681 60.5628 95.5253C59.048 98.1436 56.0422 97.7015 54.8996 94.6924C53.9116 92.0899 56.6091 89.8278 59.2915 91.0088ZM211.019 92.5159C208.042 94.5318 205.606 95.4028 203.047 95.3671C200.153 95.3267 198.324 96.5106 199.137 97.8972C199.942 99.2695 207.343 98.7896 209.653 97.2152C209.994 96.9825 211.074 96.355 212.053 95.8206C214.635 94.4111 215.679 92.6351 214.596 91.4943C213.822 90.6789 213.667 90.7237 211.019 92.5159ZM4.4835 92.0415C3.60558 92.6254 3.39291 93.2615 3.74874 94.2385C3.96308 94.8268 4.80236 94.8265 6.44395 94.2371C7.91124 93.7103 9.71741 93.9637 11.5817 94.9581C13.0156 95.723 13.866 95.3735 13.866 94.0197C13.866 92.0345 6.7492 90.5342 4.4835 92.0415ZM241.903 93.0248C239.087 95.29 238.248 99.3925 240.74 98.7058C243.026 98.0762 245.24 93.3338 243.723 92.3199C243.207 91.975 243.208 91.9747 241.903 93.0248ZM-22.639 94.6414C-23.2442 95.346 -23.2367 96.2507 -22.6215 96.8164C-20.204 99.0386 -14.7377 98.4591 -14.6629 95.9724L-14.629 94.8485L-17.965 94.6663C-19.7998 94.5661 -21.4964 94.3968 -21.7355 94.2898C-21.9952 94.1735 -22.3588 94.3153 -22.639 94.6414ZM0.938999 101.468C-1.5074 103.563 -4.1345 105.916 -4.899 106.698L-6.289 108.119L-8.652 108.24C-14.5217 108.54 -14.5976 113.052 -8.82492 118.519C-6.24091 120.965 -5.80333 121.012 -3.77227 119.056C1.66736 113.817 4.72842 112.44 6.5685 114.405C8.29766 116.251 8.28793 116.274 5.17044 117.834C0.2187 120.311 -2.64498 124.298 -3.00026 129.21C-3.097 130.545 -3.26436 131.694 -3.3725 131.765C-3.66941 131.958 -16.0301 129.322 -17.2617 128.803C-22.4906 126.598 -24.1844 141.752 -19.077 145.044C-18.062 145.698 -17.7648 146.113 -17.2603 147.584C-15.7827 151.891 -13.3388 154.809 -10.4123 155.762C-8.85133 156.27 -6.52169 152.595 -6.86669 150.17L-7.05962 148.815L-5.88034 149.013C-5.23177 149.122 -3.07171 149.876 -1.08039 150.687C5.12623 153.215 5.62219 153.121 7.93626 148.977C8.80835 147.415 9.93035 145.672 10.4294 145.103L11.3365 144.068L13.4876 146.516C15.8376 149.19 16.5718 150.116 16.7008 150.57C16.8161 150.977 10.212 156.459 6.64133 158.92C2.47551 161.791 2.64981 162.947 7.65131 165.624L9.52531 166.627L16.1437 166.715C20.9817 166.779 22.762 166.713 22.762 166.467C22.762 165.842 21.6797 164.525 20.1324 163.267C19.2851 162.578 18.592 161.926 18.592 161.818C18.592 161.298 25.979 157.502 29.573 156.176C31.4122 155.498 31.2777 154.601 28.9497 152.018C27.1227 149.991 22.484 143.536 22.484 143.021C22.484 142.886 23.3911 142.218 24.4995 141.536C25.6082 140.854 27.2459 139.729 28.1388 139.036C30.0587 137.548 29.7862 137.455 33.2098 140.755C38.7492 146.095 43.6773 151.742 43.3535 152.38C42.4566 154.146 43.679 158.05 45.543 159.374C47.6591 160.877 50.8242 160.038 53.6108 157.237C58.5417 152.281 57.1673 149.67 42.778 136.66C39.6435 133.826 36.0576 130.465 34.8094 129.191L32.5398 126.874L33.0719 125.245C35.066 119.137 31.1493 113.306 25.0527 113.306H21.8318L21.034 112.134C19.9409 110.529 16.1954 106.542 14.839 105.54C14.2274 105.088 12.6064 103.504 11.237 102.018C6.32831 96.6948 6.50206 96.7039 0.938999 101.468ZM208.654 99.8551C207.917 100.261 206.688 100.672 205.923 100.768C202.671 101.174 203.231 104.318 206.52 104.12C209.609 103.935 211.47 102.456 211.078 100.5C210.774 98.9818 210.414 98.8857 208.654 99.8551ZM245.358 99.9677C244.628 100.455 243.856 100.854 243.643 100.854C242.344 100.854 241.892 103.433 243.051 104.232C243.93 104.84 247.431 103.032 247.955 101.7C248.764 99.641 247.304 98.6665 245.358 99.9677ZM-25.4824 100.082C-26.8115 102.081 -22.4172 103.92 -16.7449 103.739C-13.1984 103.625 -12.425 103.177 -12.5996 101.338L-12.683 100.458L-17.131 100.395C-19.8093 100.357 -22.2762 100.163 -23.3315 99.9073C-25.0181 99.4983 -25.099 99.505 -25.4824 100.082ZM9.619 103.84C15.3544 109.481 17.7683 112.016 18.4727 113.138L19.2228 114.332L18.4694 115.126C17.1734 116.492 15.7864 121.16 16.3141 122.381C17.3585 124.796 19.697 122.939 19.7023 119.69C19.7068 117.142 26.4541 114.334 28.4262 116.059C31.8715 119.072 30.6127 125.175 25.959 128.02C24.2966 129.036 23.9151 130.324 25.0321 131.149C26.0032 131.866 27.029 131.714 28.7946 130.592C31.1106 129.12 30.8916 128.989 38.052 136.154C40.1161 138.22 42.9934 140.91 44.446 142.131C53.4446 149.7 54.8407 153.734 49.5459 156.868C46.8476 158.465 44.0462 155.473 45.9764 153.055C47.395 151.279 47.256 150.769 44.6823 148.316C43.4141 147.108 40.2463 143.942 37.6428 141.282C29.446 132.906 30.2449 133.222 25.6012 136.521C23.6574 137.902 21.2853 139.408 20.3295 139.868C17.9612 141.009 17.9787 142.361 20.3937 144.801C20.9519 145.365 21.6764 146.287 22.0039 146.851C22.3314 147.415 23.3858 149.028 24.3472 150.436C25.3085 151.843 26.1272 153.138 26.1661 153.312C26.205 153.487 23.3597 155.169 19.843 157.052L13.449 160.475V161.484C13.449 162.465 13.5291 162.539 16.2985 164.092C20.3087 166.341 20.0748 166.883 15.4409 166.082C11.8716 165.465 7.75 163.476 7.75 162.372C7.75 162.263 8.84476 161.408 10.1825 160.472C22.1287 152.112 22.1348 152.101 17.8506 147.196C9.71851 137.885 10.6857 138.104 6.499 144.622C5.2758 146.526 4.07818 148.353 3.83743 148.681C3.33397 149.368 -2.13373 147.677 -6.95342 145.344C-10.7979 143.482 -11.551 144.057 -10.439 148.003C-9.95165 149.733 -10.3039 152.418 -11.0181 152.418C-12.8189 152.418 -15.2812 145.763 -14.0894 144.117C-13.6938 143.57 -13.1714 142.508 -12.9285 141.757C-12.4915 140.405 -12.4762 140.392 -11.4729 140.573C-7.48857 141.288 -4.43113 142.069 -1.4682 143.128L1.96287 144.355L2.7018 143.451C8.80723 135.986 8.55092 136.461 7.09837 135.294C5.73144 134.195 5.55658 134.282 2.79604 137.435L0.267073 140.323L-1.25804 139.781C-2.09648 139.482 -5.49475 138.669 -8.80963 137.975C-15.9715 136.473 -15.565 136.323 -16.2762 140.732C-16.4894 142.054 -17.3615 142.985 -17.9252 142.492C-19.4367 141.169 -19.0523 134.832 -17.2833 131.918C-16.987 131.429 -17.0281 131.422 -7.15191 133.8C0.712152 135.694 1.13499 135.626 0.604565 132.553C-0.385115 126.816 1.80219 123.439 8.91065 119.727C12.3948 117.908 13.1176 116.523 11.2945 115.161C10.7977 114.79 9.15334 113.265 7.64075 111.772C6.12815 110.279 4.73092 109.058 4.53632 109.058C3.34759 109.058 -0.540794 111.769 -5.75969 116.237L-6.62038 116.974L-8.0404 115.391C-10.7253 112.399 -10.4051 111.213 -6.9473 111.341L-4.621 111.426L-2.675 109.426C5.12707 101.408 6.5079 100.78 9.619 103.84ZM132.553 104.278C132.057 105.653 132.332 106.217 133.939 107.125L135.445 107.976L135.954 107.312C136.675 106.375 136.591 105.715 135.601 104.527C134.47 103.17 132.996 103.049 132.553 104.278ZM121.647 104.988C120.216 106.502 120.14 108.021 121.293 112.134C121.417 112.578 120.714 113.681 118.399 116.675C116.716 118.85 114.482 121.822 113.433 123.278C112.385 124.734 111.18 126.165 110.757 126.457L109.987 126.989L105.92 124.926C95.9538 119.872 90.7608 119.794 85.2622 124.616C83.5384 126.128 83.6179 126.174 82.2629 122.901C80.7645 119.281 78.9878 115.844 78.1674 114.979C77.3787 114.147 77.2105 114.229 73.775 117.113C68.1413 121.842 66.2965 124.554 65.9321 128.644C65.7814 130.335 65.5918 130.776 63.8624 133.463C58.5459 141.722 60.8344 147.009 67.8825 142.75C70.8451 140.959 70.6528 140.955 71.3845 142.823C71.8813 144.091 75.1205 150.364 76.6039 152.931C77.2183 153.994 78.0665 153.71 80.725 151.552C86.9427 146.503 88.107 145.83 88.7361 146.925C88.9443 147.287 90.0155 149.062 91.1166 150.869C92.2175 152.676 93.3709 154.756 93.6798 155.492L94.2414 156.83L92.461 159.385C90.1311 162.728 89.7239 162.541 85.6075 156.239C84.1399 153.992 83.6387 153.978 80.42 156.1C75.1189 159.594 73.1059 163.217 74.8806 166.072C75.2962 166.74 83.644 167.249 83.644 166.607C83.644 164.428 81.0908 163.42 79.613 165.016C78.7968 165.896 78.3081 166.188 77.6445 166.188C74.7208 166.188 76.5594 162.313 80.4298 160.319L82.115 159.451L83.182 160.689C83.7688 161.37 84.9411 163.023 85.7868 164.362L87.3247 166.798L89.2791 166.712L91.2334 166.627L94.2714 161.977C97.8392 156.517 97.8209 157.528 94.4604 151.539C93.0587 149.041 91.4652 146.047 90.919 144.884C89.3677 141.583 87.4203 142.172 80.0481 148.175C78.9633 149.058 77.9811 149.781 77.8658 149.781C77.2742 149.781 72.9391 140.654 72.231 137.918C71.6316 135.601 70.8343 135.386 69.3328 137.138C68.1875 138.474 64.296 141.285 63.5916 141.285C61.8535 141.285 61.7721 139.83 63.3603 137.163C63.9774 136.127 64.7225 134.746 65.0155 134.095C65.6671 132.648 66.9996 131.802 69.6328 131.164C70.6878 130.908 71.9574 130.449 72.4542 130.142L73.3577 129.586L74.1926 131.114C75.1853 132.931 76.4477 136.301 77.1249 138.941C78.0351 142.49 78.5574 142.59 83.0649 140.073C84.8361 139.083 87.0356 137.979 87.953 137.618C90.2635 136.708 91.1875 134.66 89.6257 133.91C89.0194 133.618 88.4403 133.818 84.873 135.548C79.913 137.953 80.5971 138.332 77.9798 131.724C74.9879 124.171 74.8692 124.066 72.0258 126.484C70.6934 127.617 69.0137 128.213 67.9464 127.931L67.2403 127.744L67.9598 126.351C69.2859 123.783 75.1422 117.819 75.8708 118.293C76.4994 118.703 78.2544 122.322 79.452 125.677C81.2646 130.757 81.6994 130.975 84.5214 128.221C90.6757 122.213 96.2924 122.612 107.734 129.869C110.476 131.609 110.79 131.552 112.337 129.039C112.902 128.12 115.32 124.798 117.71 121.656C124.747 112.404 125.472 110.87 123.937 108.483C122.914 106.891 122.947 106.019 124.034 105.888C132.179 104.903 126.693 120.539 113.478 135.978L112.127 137.557L109.743 137.183L107.36 136.809L104.746 137.767C101.052 139.119 99.8531 140.614 101.035 142.391C101.594 143.233 101.643 143.227 104.254 142.017C109.102 139.771 111.981 141.13 112.453 145.889C113.066 152.073 108.59 154.44 101.964 151.436C99.3037 150.23 98.8228 150.265 98.3744 151.697C97.8626 153.331 98.4853 154.055 101.488 155.321L103.069 155.987L102.006 159.11C101.122 161.709 100.391 163.678 99.299 166.407C99.1931 166.672 99.5378 166.774 100.543 166.774C101.392 166.774 101.989 166.631 102.077 166.407C102.156 166.206 102.856 164.425 103.633 162.449C106.25 155.792 106.455 155.462 108.101 155.256C113.691 154.559 116.459 148.755 114.664 141.495L114.173 139.507L116.075 137.286C126.524 125.084 132.906 111.051 129.922 106.838C128.126 104.303 123.313 103.227 121.647 104.988ZM160.328 104.576C159.179 105.974 159.019 108.088 159.716 112.66C160.31 116.563 160.922 117.165 162.646 115.542L163.539 114.701L163.022 112.539C162.7 111.191 162.493 109.217 162.473 107.3L162.44 104.224L161.6 104.136C161.058 104.08 160.607 104.235 160.328 104.576ZM80.6299 105.388C79.3333 106.944 78.6166 111.752 79.4715 113.159C80.2079 114.371 81.82 112.614 82.0238 110.376C82.1267 109.248 82.408 107.666 82.6493 106.86C83.0738 105.442 83.0691 105.379 82.5011 104.883C81.7077 104.189 81.6049 104.217 80.6299 105.388ZM27.6604 105.144C27.22 105.395 25.969 105.731 24.8804 105.89C22.122 106.292 21.3359 107.271 22.9029 108.354C24.7489 109.628 30.1966 107.797 29.8321 106.025C29.5377 104.595 29.002 104.378 27.6604 105.144ZM244.884 105.753C242.659 106.7 243.98 109.058 246.735 109.058C248.463 109.058 249.04 108.277 248.578 106.567C248.337 105.674 246.184 105.2 244.884 105.753ZM-16.158 106.466C-16.5744 106.646 -17.781 106.691 -19.1679 106.577C-22.3004 106.32 -23.2957 107.358 -21.562 109.074C-20.646 109.981 -15.148 110.167 -14.3413 109.319C-12.5651 107.45 -13.8328 105.459 -16.158 106.466ZM220.131 108.925C219.925 109.187 219.781 110.107 219.79 111.108C219.811 113.496 219.446 113.969 217.946 113.496C215.124 112.605 215.479 115.435 218.337 116.617C219.875 117.253 220.049 117.623 220.109 120.379C220.144 121.971 220.373 122.242 221.688 122.242C222.424 122.242 222.586 121.821 222.71 119.605C222.789 118.169 222.635 118.237 224.935 118.626C228.077 119.158 227.408 116.026 224.157 114.985L222.505 114.455L222.334 112.043C222.117 108.977 221.158 107.621 220.131 108.925ZM29.3645 109.511C27.2359 110.996 28.3195 112.637 31.0094 112.002C32.6482 111.616 33.0347 111.135 32.7889 109.79C32.5665 108.573 30.903 108.438 29.3645 109.511ZM86.0826 109.168C85.0062 110.029 84.1803 115.706 84.8091 117.918L85.1402 119.083L86.3965 118.902C88.0581 118.662 88.2018 118.461 87.8738 116.839C87.66 115.782 87.7136 114.854 88.1148 112.672C88.7814 109.044 87.975 107.653 86.0826 109.168ZM46.114 109.937C44.6384 111.492 48.8987 116.1 51.4408 115.698C52.424 115.542 52.5372 112.573 51.5597 112.573C51.3498 112.573 50.5703 112 49.8275 111.3C47.6283 109.226 47.005 108.998 46.114 109.937ZM91.373 109.979C88.9474 110.914 88.9052 117.835 91.3274 117.37L92.679 117.111L92.8614 115.209C92.962 114.162 93.1366 112.659 93.25 111.869C93.424 110.655 93.3765 110.37 92.9448 110.037C92.3632 109.589 92.3821 109.59 91.373 109.979ZM243.916 110.999C243.079 111.881 243.493 112.933 245.023 113.812C247.229 115.08 248.498 114.879 248.498 113.262C248.498 111.71 244.919 109.942 243.916 110.999ZM41.6212 113.293C40.7191 115.379 44.5728 118.978 45.883 117.273C46.752 116.142 46.504 115.202 44.9711 113.819C43.3226 112.331 42.1186 112.142 41.6212 113.293ZM244.536 115.671C243.554 116.72 245.878 119.312 247.801 119.312C248.845 119.312 248.731 117.171 247.64 116.317C246.873 115.715 244.883 115.302 244.536 115.671ZM-24.4872 117.609C-26.4537 119.834 -21.8637 121.609 -16.2989 120.777C-13.7375 120.394 -13.9387 120.569 -13.529 118.37C-13.3502 117.411 -14.0408 117.188 -16.1288 117.529C-18.8187 117.969 -20.9137 117.926 -22.0922 117.407C-23.4285 116.819 -23.8175 116.852 -24.4872 117.609ZM108.774 118.393C107.113 119.228 106.718 119.808 106.718 121.409C106.718 122.645 110.33 121.547 111.808 119.861C113.648 117.763 111.803 116.87 108.774 118.393ZM132.366 119.092C132.216 119.294 132.012 119.815 131.913 120.252C131.814 120.688 131.129 121.81 130.391 122.745C128.626 124.98 128.327 125.612 128.545 126.654C129.169 129.648 132.603 126.103 133.81 121.22C134.335 119.096 133.397 117.713 132.366 119.092ZM160.372 121.275C157.681 121.762 152.751 123.06 149.899 124.033L146.514 125.188L145.101 123.699C138.595 116.842 133.822 124.512 139.536 132.642C140.103 133.448 140.72 134.634 140.909 135.279C141.782 138.262 142.594 138.416 147.137 136.46C152.999 133.936 154.784 134.114 154.81 137.221C154.813 137.514 153.525 137.968 149.953 138.933C143.612 140.646 139.399 144.443 134.504 152.854C133.706 154.225 132.924 155.348 132.766 155.348C132.391 155.348 128.95 153.075 127.031 151.559C125.139 150.065 124.242 150.008 123.293 151.319C122.731 152.096 115.614 166.324 115.614 166.671C115.614 166.728 116.208 166.767 116.934 166.76L118.255 166.745L119.645 163.632C123.805 154.315 123.525 154.486 128.402 158.273C133.196 161.996 132.948 162.01 135.085 157.911C140.973 146.621 143.982 144.022 154.476 141.167C159.292 139.857 159.723 139.153 158.011 135.388C157.477 134.214 156.962 132.635 156.867 131.881C156.565 129.478 153.74 129.533 146.26 132.088C144.647 132.639 143.3 133.054 143.266 133.012C142.821 132.468 139.573 127.015 139.058 125.948C138.263 124.301 138.627 123.413 140.098 123.413C141.339 123.413 141.714 123.689 142.837 125.428C144.766 128.412 144.52 128.344 148.471 126.976C154.507 124.887 160.042 123.457 160.624 123.836C161.473 124.389 166.178 140.357 165.603 140.733C165.402 140.864 164.398 141.457 163.373 142.049C160.801 143.536 160.068 145.113 161.226 146.665C161.885 147.548 162.37 147.638 162.892 146.975C166.619 142.242 173.705 146.655 171.095 152.083C168.88 156.69 166.281 157.672 163.099 155.104C160.2 152.763 159.114 152.435 158.303 153.655C156.697 156.07 161.684 160.328 166.118 160.328C168.801 160.328 168.599 160.159 170.326 163.844L171.631 166.627L173.122 166.717L174.613 166.806L179.581 161.643C182.313 158.803 184.668 156.556 184.813 156.651C185.269 156.948 187.521 160.72 187.84 161.72C188.268 163.065 187.513 163.006 185.765 161.557C185.024 160.944 184.265 160.345 184.077 160.225C183.436 159.818 182.609 160.642 181.655 162.638C181.131 163.735 180.381 165.034 179.989 165.525C179.114 166.622 179.104 166.774 179.914 166.774C180.353 166.774 180.883 166.316 181.612 165.309C182.835 163.618 182.7 163.659 184.418 164.459C188.546 166.384 191.214 162.461 188.92 157.838C185.29 150.521 185.092 150.489 179.013 156.251C172.73 162.205 173.197 162.088 171.206 158.198L170.341 156.507L171.364 155.039C174.874 149.999 174.24 145.031 169.607 141.285C169.077 140.856 165.888 131.628 163.988 125.025C162.923 121.324 162.504 120.889 160.372 121.275ZM-18.3125 123.889C-20.2493 125.36 -18.6636 126.917 -15.1389 127.005C-11.9029 127.086 -12.0447 127.154 -11.8173 125.406L-11.6444 124.076L-12.8587 123.904C-16.2887 123.416 -17.6848 123.412 -18.3125 123.889ZM7.25349 127.5C3.86523 128.08 4.93719 130.681 10.1814 134.604C10.6779 134.975 11.7674 135.851 12.6025 136.55C14.4706 138.115 16.0397 138.473 16.8192 137.514C17.4464 136.742 18.8497 131.056 18.8614 129.24L18.87 127.889L17.2946 127.556C15.6071 127.198 9.21923 127.163 7.25349 127.5ZM181.778 129.016C171.848 134.168 171.95 148.142 181.917 148.135C186.467 148.131 192.064 142.477 192.064 137.883C192.064 130.647 187.018 126.297 181.778 129.016ZM97.0886 129.38C96.4281 129.979 96.308 130.339 96.206 132.03L96.0876 133.987L94.5224 134.829C91.9373 136.219 91.8834 136.288 92.2473 137.711C92.5981 139.084 92.5909 139.081 94.3581 138.583C96.02 138.115 96.1979 138.416 95.9744 141.317C95.7829 143.801 95.9335 144.084 97.2821 143.771C98.4911 143.492 98.9521 142.528 99.1286 139.912C99.3143 137.155 99.6754 136.631 102.028 135.704C105.342 134.398 104.805 131.414 101.395 132.184C99.6273 132.584 99.49 132.479 99.49 130.731C99.49 129.61 99.3718 129.227 98.9523 128.99C98.1801 128.555 97.9443 128.604 97.0886 129.38ZM15.0383 130.738C14.7511 134.475 14.1726 134.678 11.4026 132.013C8.99211 129.695 9.07523 129.532 12.615 129.638L15.117 129.712L15.0383 130.738ZM185.6 132.374C186.868 132.914 186.74 133.241 184.868 134.236C183.338 135.05 183.205 135.074 182.819 134.607C180.78 132.141 182.261 130.952 185.6 132.374ZM125.059 133.833C123.887 137.081 130.055 149.593 132.124 148.164C133.392 147.288 133.317 146.606 131.613 143.494C129.265 139.208 128.429 137.348 128.089 135.649C127.545 132.934 125.768 131.869 125.059 133.833ZM225.481 134.097C224.184 135.834 224.453 140.565 225.887 141.254C227.428 141.994 227.779 141.16 228.014 136.218C228.15 133.336 226.858 132.253 225.481 134.097ZM131.199 134.236C129.984 135.516 132.93 141.557 135.394 142.841C137.257 143.811 137.978 141.409 136.421 139.419C135.939 138.802 135.032 137.289 134.406 136.056C133.13 133.544 132.301 133.074 131.199 134.236ZM189.284 136.597C189.839 138.771 187.814 142.895 186.679 141.902C184.202 139.735 184.335 137.772 187.06 136.287C189.006 135.226 188.931 135.216 189.284 136.597ZM179.57 136.378C180.356 137.371 180.226 137.912 178.93 139.046C177.202 140.56 176.745 139.127 178.169 136.659C178.815 135.54 178.894 135.524 179.57 136.378ZM53.6645 136.571C50.865 136.808 49.7719 138.108 51.1514 139.562C51.7074 140.148 56.1504 140.198 57.0249 139.628C57.8937 139.063 56.9201 136.145 55.9318 136.352C55.807 136.378 54.7868 136.477 53.6645 136.571ZM245.322 139.199C245.238 139.341 245.089 140.626 244.99 142.055C244.871 143.775 244.583 145.232 244.14 146.36C243.182 148.798 243.688 149.88 245.637 149.568C247.195 149.318 248.86 140.899 247.654 139.368C247.289 138.905 245.567 138.78 245.322 139.199ZM121.618 140.748C120.89 141.843 122.947 147.447 124.235 147.878C125.027 148.142 126.178 147.024 126.178 145.991C126.178 142.896 122.784 138.993 121.618 140.748ZM183.347 143.831C184.063 145.638 182.405 145.88 179.902 144.334C178.414 143.415 178.424 143.112 179.987 141.594L181.253 140.363L182.103 141.6C182.57 142.279 183.13 143.283 183.347 143.831ZM55.221 141.794C52.7682 141.957 52.324 143.504 54.3511 144.824C56.2938 146.089 58.902 145.249 58.902 143.359C58.902 142.075 58.4892 141.558 57.5259 141.633C57.1359 141.664 56.0986 141.736 55.221 141.794ZM-26.9875 148.842L-27 151.564L-25.9005 153.099C-25.2956 153.943 -24.4696 155.396 -24.0649 156.328C-23.1731 158.381 -22.5993 158.685 -20.6427 158.141C-18.2191 157.467 -16.0654 158.506 -15.3401 160.698C-15.034 161.623 -16.4988 163.551 -17.5077 163.551C-18.2244 163.551 -24.5297 161.495 -25.6342 160.901C-27.057 160.136 -27.0428 160.127 -26.9458 161.72L-26.861 163.111L-23.386 164.931C-20.0069 166.701 -19.8496 166.752 -17.687 166.759L-15.463 166.766L-14.1222 165.155C-10.382 160.661 -13.1003 155.348 -19.1398 155.348H-20.4853L-22.5178 152.159C-23.6359 150.405 -25.096 148.328 -25.7629 147.544L-26.975 146.119L-26.9875 148.842ZM207.994 146.934C206.502 148.687 206.056 150.476 206.922 151.232C207.671 151.888 208.569 151.449 209.508 149.968C210.853 147.847 210.733 147.298 208.715 146.362C208.623 146.318 208.298 146.576 207.994 146.934ZM146.971 147.067C145.37 149.001 145.59 151.145 147.688 154.041C148.222 154.778 148.737 155.755 148.832 156.212C149.378 158.833 150.991 158.483 153.91 155.11C157.799 150.617 157.548 149.38 152.43 147.842C148.058 146.529 147.484 146.447 146.971 147.067ZM212.337 148.294C211.475 149.202 211.268 150.488 211.812 151.558C212.67 153.247 215.416 151.112 215.416 148.756C215.416 147.286 213.557 147.007 212.337 148.294ZM62.377 148.873C60.0802 149.939 59.4074 153.283 60.692 157.252L61.3556 159.303L59.7813 160.757C58.9153 161.557 57.2062 163.235 55.983 164.488L53.759 166.765L56.2143 166.769C58.9562 166.774 58.1978 167.174 62.8635 163.263C65.1061 161.384 65.1664 161.04 63.7678 158.114C61.1549 152.647 63.5254 149.905 67.4891 153.809L69.4966 155.787L68.781 157.984C68.3876 159.193 67.4121 161.566 66.6134 163.258C65.815 164.95 65.1189 166.433 65.0666 166.554C64.8887 166.965 68.5458 166.797 68.8755 166.378C69.6125 165.442 73.3477 156.36 73.1987 155.866C72.3336 152.994 64.4612 147.907 62.377 148.873ZM151.005 150.387C152.398 150.795 152.566 151.372 151.599 152.435C150.561 153.577 150.251 153.524 149.579 152.094C148.694 150.208 149.028 149.808 151.005 150.387ZM34.5334 155.262C33.3266 156.631 32.2699 157.497 31.0481 158.118C28.7154 159.304 28.7471 161.5 31.0973 161.5C34.6056 161.5 39.6702 154.973 37.2299 153.596C36.4199 153.14 36.3848 153.161 34.5334 155.262ZM143.082 154.53C142.466 155.224 138.547 163.059 137.067 166.554C137.016 166.675 137.67 166.774 138.521 166.774H140.069L140.809 165.235C142.741 161.222 145.632 154.289 145.512 153.959C145.254 153.25 143.944 153.558 143.082 154.53ZM109.985 156.554C107.842 157.818 110.162 160.621 113.35 160.621C116.645 160.621 117.091 158.172 113.946 157.352C112.799 157.054 111.539 156.693 111.145 156.551C110.729 156.401 110.243 156.402 109.985 156.554ZM37.6761 160.433C35.6345 162.151 34.3919 162.981 33.5112 163.215C31.4392 163.765 30.7273 165.087 31.998 166.024C33.6855 167.27 38.2477 165.146 41.5278 161.586C42.6893 160.326 42.6999 160.22 41.7908 158.964C40.8592 157.677 41.0196 157.62 37.6761 160.433ZM247.407 160.201C243.751 161.669 243.373 161.975 243.412 163.437C243.475 165.763 244.225 166.774 245.891 166.774H247.369L246.683 165.707C245.415 163.739 245.684 163.493 249.882 162.786L251 162.597V160.73C251 159.703 250.906 158.877 250.792 158.894C250.677 158.912 249.154 159.499 247.407 160.201ZM-5.733 159.372C-7.26339 159.608 -7.80938 160.908 -6.7755 161.855C-5.32684 163.18 -0.0340023 161.839 -0.0340023 160.146V159.156L-2.4665 159.2C-3.80424 159.224 -5.2743 159.302 -5.733 159.372ZM107.734 161.743C105.876 163.906 110.751 167.255 113.338 165.593C114.677 164.734 114.511 163.603 112.973 163.106C112.361 162.908 111.173 162.402 110.332 161.98C108.509 161.065 108.33 161.049 107.734 161.743ZM148.913 162.419C148.172 163.228 146.691 165.522 146.243 166.554C145.8 167.576 148.967 166.669 149.692 165.566L150.486 164.359L152.857 164.595C154.162 164.724 156.829 164.839 158.785 164.85L162.341 164.869L162.913 165.821C163.669 167.08 166.685 167.338 166.34 166.114C165.325 162.517 163.913 161.365 161.556 162.211C159.952 162.787 158.481 162.789 154.951 162.221C149.381 161.324 149.933 161.306 148.913 162.419ZM215.416 162.489C213.429 163.065 212.123 163.838 210.589 165.346L209.161 166.751L210.141 166.762C210.681 166.769 211.39 166.576 211.717 166.334C213.626 164.925 217.095 164.865 219.254 166.204C219.97 166.647 220.697 166.774 222.533 166.774H224.892L224.157 165.803C222.052 163.022 218.378 161.629 215.416 162.489ZM125.058 162.981C124.751 163.585 123.963 166.144 123.957 166.554C123.95 167.098 126.73 166.772 127.076 166.188C127.513 165.45 127.869 165.453 129.261 166.201C130.094 166.649 130.791 166.779 132.017 166.714L133.658 166.627L130.315 164.503C126.75 162.237 125.604 161.906 125.058 162.981ZM42.9659 164.114C42.1703 164.907 41.1823 165.645 40.77 165.754C38.648 166.315 39.3369 166.774 42.3023 166.774H45.2305L45.9503 165.872C46.9085 164.672 46.8535 164.12 45.6976 163.331C44.4641 162.489 44.6492 162.436 42.9659 164.114ZM-2.675 164.121C-5.9415 164.33 -6.706 164.67 -6.706 165.912V166.789L-2.4665 166.708L1.773 166.627L1.85918 165.528C1.94119 164.485 1.16084 163.67 0.295429 163.893C0.190622 163.92 -1.146 164.023 -2.675 164.121Z" fill="black"/>
    <defs>
        <filter id="filter0_f_0_1" x="1.85509" y="-102.145" width="324.29" height="324.29" filterUnits="userSpaceOnUse" color-interpolation-filters="sRGB">
            <feFlood flood-opacity="0" result="BackgroundImageFix"/>
            <feBlend mode="normal" in="SourceGraphic" in2="BackgroundImageFix" result="shape"/>
            <feGaussianBlur stdDeviation="51.0725" result="effect1_foregroundBlur_0_1"/>
        </filter>
        <radialGradient id="paint0_radial_0_1" cx="0" cy="0" r="1" gradientUnits="userSpaceOnUse" gradientTransform="translate(137.567 58.8611) rotate(89.4019) scale(261.226 261.226)">
            <stop stop-color="#159056"/>
            <stop offset="1" stop-color="#159056" stop-opacity="0"/>
        </radialGradient>
    </defs>
</svg>
